<?xml version="1.0" encoding="utf-8"?>
<!-- Generator: Adobe Illustrator 27.0.0, SVG Export Plug-In . SVG Version: 6.00 Build 0)  -->
<svg version="1.1" id="图层_1" xmlns:serif="http://www.serif.com/"
	 xmlns="http://www.w3.org/2000/svg" xmlns:xlink="http://www.w3.org/1999/xlink" x="0px" y="0px" viewBox="0 0 710.7 807.5"
	 style="enable-background:new 0 0 710.7 807.5;" xml:space="preserve">
<style type="text/css">
	.st0{fill:#00007F;stroke:#0071BC;stroke-width:30;stroke-linecap:square;stroke-linejoin:round;stroke-miterlimit:1.5;}
	.st1{fill:#FFFFFF;}
	.st2{font-family:'TimesNewRomanPS-BoldItalicMT';}
	.st3{font-size:136px;}
	.st4{fill:#CC3300;}
	.st5{fill:#00D447;}
	.st6{fill:#FFD756;}
	.st7{fill:#66CC00;stroke:#66CC00;stroke-miterlimit:10;}
	.st8{fill:none;stroke:#66CC00;stroke-width:16;stroke-miterlimit:10;}
	.st9{fill:#00F475;}
	.st10{fill:#EA5622;}
	.st11{fill:#FFFF66;}
	.st12{fill:#55DBFF;}
	.st13{fill:#FBFF0A;}
	.st14{fill:#FF94C1;}
	.st15{fill:#FFA80A;}
	.st16{fill:#4A78FF;}
	.st17{fill:#93C900;}
	.st18{fill:#E95500;}
	.st19{fill:#E9F200;}
	.st20{fill:#990000;}
	.st21{fill:#82C3DF;}
	.st22{fill:none;stroke:#82C3DF;stroke-width:10;stroke-miterlimit:10;}
	.st23{fill:#B01E23;}
	.st24{fill:none;stroke:#B01E23;stroke-width:14;stroke-miterlimit:10;}
	.st25{fill:#CCE0FF;}
	.st26{fill:#E73A4A;}
	.st27{fill:#6CB82D;}
	.st28{fill:#C95319;}
	.st29{fill:#25BAE2;}
	.st30{fill:#0069A3;}
	.st31{fill:#CB9611;}
	.st32{fill:#F5CA58;}
	.st33{fill:#6887C4;}
	.st34{font-size:123px;}
</style>
<path class="st0" d="M354.7,41.7L39.9,223.1L42.5,585L355,764l314.5-179.3V225.1L354.7,41.7L354.7,41.7z"/>
<text transform="matrix(1 0 0 1 60.3501 337.0694)" class="st1 st2 st3">infer</text>
<text transform="matrix(1 0 0 1 330.1819 337.0693)" class="st4 st2 st3">C</text>
<text transform="matrix(1 0 0 1 415.6184 337.0693)" class="st5 st2 st3">S</text>
<text transform="matrix(1 0 0 1 487.5939 334.9697)" class="st6 st2 st3">N</text>
<g>
	<g>
		<path class="st6" d="M595.3,452.6l-3.8-3.7c0.4-0.3,0.8-0.8,1.1-1.1l3.2,3.1L595.3,452.6"/>
		<path class="st6" d="M612.5,469.6L596.7,454l0.5-1.8l16.6,16.3C613.3,468.8,612.8,469.2,612.5,469.6"/>
		<path class="st6" d="M611.1,472.1l-11.8-4.6c0.3-0.5,0.5-1,0.6-1.5l11.8,4.7C611.5,471.1,611.3,471.6,611.1,472.1"/>
		<path class="st6" d="M595.8,457.6c-0.5-0.2-1.1-0.3-1.5-0.4l1.1-4.6l0.5-1.8l1-3.8l0.4-1.5l3.4-13.8c0.5,0.2,1.1,0.3,1.5,0.4
			l-3.4,13.8l-0.4,1.5l-1.1,4.7l-0.5,1.8L595.8,457.6"/>
		<path class="st6" d="M602.8,430.5c-2.9,0-5.3-2.4-5.3-5.3s2.4-5.3,5.3-5.3c2.9,0,5.3,2.4,5.3,5.3
			C608.2,428.1,605.8,430.5,602.8,430.5"/>
		<path class="st6" d="M602.8,419.9c-2.9,0-5.3,2.4-5.3,5.3s2.4,5.3,5.3,5.3c2.9,0,5.3-2.4,5.3-5.3
			C608.1,422.2,605.8,419.9,602.8,419.9"/>
		<path class="st6" d="M602.2,435.2c-0.4,0-0.7,0-1.1-0.1c-0.7-0.1-1.2-0.2-1.8-0.5c-0.6-0.2-1.1-0.5-1.7-0.9
			c-0.6-0.4-1.1-0.8-1.4-1.2c-1.3-1.4-2.2-3.4-2.2-5.6c0-4.5,3.6-8.1,8.1-8.1s8.1,3.6,8.1,8.1c0,0.8-0.1,1.4-0.4,2.2
			c-0.1,0.6-0.5,1.2-0.7,1.7C607.9,433.5,605.3,435.2,602.2,435.2"/>
		<path class="st6" d="M584,453.2c-5.4,0-10-4.3-10.1-9.8V443c0.1-5.4,4.6-9.8,10.1-9.8c2.1,0,4,0.6,5.6,1.6c0.7,0.4,1.2,1,1.8,1.5
			c1.6,1.8,2.6,4.1,2.6,6.8c0,0.6,0,1-0.1,1.5c-0.1,0.9-0.3,1.5-0.6,2.2c-0.3,0.9-0.9,1.6-1.3,2.4c-0.4,0.6-1,1.1-1.6,1.6
			C588.4,452.4,586.3,453.2,584,453.2"/>
		<path class="st6" d="M593.3,469.5c-2.9,0-5.3-2.4-5.3-5.3s2.4-5.3,5.3-5.3c2.9,0,5.3,2.4,5.3,5.3
			C598.5,467.1,596.2,469.4,593.3,469.5"/>
		<path class="st6" d="M593.3,458.8c-2.9,0-5.3,2.4-5.3,5.3s2.4,5.3,5.3,5.3c2.9,0,5.3-2.4,5.3-5.3S596.2,458.9,593.3,458.8"/>
		<path class="st6" d="M593.9,472.6c-4.7,0-8.4-3.7-8.4-8.4c0-4.7,3.7-8.4,8.4-8.4c0.4,0,0.7,0,1.1,0.1c0.7,0.1,1.2,0.2,1.9,0.5
			c3.2,1.1,5.4,4.2,5.4,7.8c0,0.9-0.1,1.5-0.2,2.2c-0.1,0.6-0.5,1.2-0.7,1.9C600,470.9,597.1,472.6,593.9,472.6"/>
		<path class="st6" d="M617.7,479.4c-2.9,0-5.3-2.4-5.3-5.3s2.4-5.3,5.3-5.3s5.3,2.4,5.3,5.3C622.9,477.1,620.7,479.4,617.7,479.4"
			/>
		<path class="st6" d="M617.7,468.8c-2.9,0-5.3,2.4-5.3,5.3s2.4,5.3,5.3,5.3s5.3-2.4,5.3-5.3C623,471.1,620.7,468.8,617.7,468.8"/>
		<path class="st6" d="M617.7,481.1c-3.8,0-6.9-3.1-6.9-6.9c0-0.7,0.1-1.3,0.3-1.9c0.2-0.5,0.4-1.1,0.7-1.4c0.2-0.4,0.5-0.8,0.8-1.1
			c0.4-0.4,0.8-0.8,1.1-1.1c0.3-0.2,0.7-0.4,1-0.6c0.5-0.2,1-0.4,1.5-0.6c0.5-0.1,1.1-0.2,1.5-0.2c0.6,0,1.2,0.1,1.8,0.2
			c0.5,0.1,1.1,0.3,1.5,0.6c2.1,1.1,3.6,3.4,3.6,6C624.7,477.9,621.6,481,617.7,481.1"/>
		<path class="st6" d="M644.1,451H639c0,18.6-15.1,33.7-33.8,33.8c-18.6,0-33.7-15.1-33.8-33.8c0-18.6,15.1-33.7,33.8-33.8
			c18.6,0,33.7,15.1,33.8,33.8h10.3c0-24.2-19.6-44-44-44c-24.3,0-44,19.6-44,44s19.6,44,44,44c24.2,0,44-19.6,44-44H644.1"/>
		<path class="st6" d="M623.5,453.9c-0.4,0-0.8,0-1.2-0.1c-0.8-0.1-1.5-0.3-2.2-0.6c-0.7-0.3-1.3-0.6-2-1.1c-0.7-0.4-1.2-1-1.7-1.5
			c-1.6-1.7-2.6-4-2.6-6.6c0-5.4,4.3-9.9,9.9-9.9c5.4,0,9.9,4.3,9.9,9.9c0,1-0.1,1.7-0.4,2.6c-0.1,0.7-0.6,1.5-0.8,2
			C630.4,451.9,627.3,453.9,623.5,453.9"/>
		<path class="st6" d="M585.5,445.5c0.1-0.7,0.1-1.3,0.1-2l6.3,0.1l2.5,0.1l5.3,0.1h2.1l18.9,0.3c-0.1,0.7-0.1,1.3-0.1,2l-18.9-0.3
			h-2.1l-6.4-0.1l-2.5-0.1L585.5,445.5"/>
	</g>
	<g>
		<path class="st7" d="M375.1,488l-6.8-1.9c0.4-1,0.7-2.2,0.9-3.3l6.5,1.8L375.1,488 M386.9,491.2l-8.3-2.3l0.8-3.4l8.5,2.4
			C387.3,488.9,387,490.1,386.9,491.2 M372.1,500.2l-8.3-8.2c0.9-0.7,1.7-1.6,2.5-2.5l6.7,6.6L372.1,500.2 M409.2,536.8L375,503.1
			l0.9-4l35.9,35.3C410.9,535.2,410,536,409.2,536.8 M406.2,542.4l-25.4-10.2c0.6-1,1-2.1,1.2-3.2l25.4,10.2
			C407.1,540.2,406.6,541.2,406.2,542.4 M424.3,469.4l-38.3-29l0.4-4l40.1,30.4C425.7,467.6,425,468.5,424.3,469.4 M453.7,486.3
			l-47.6,6.5l-2.6-3.1l49.8-6.9C453.4,484,453.4,485.1,453.7,486.3"/>
		<path class="st7" d="M373,511.1c-1.1-0.4-2.2-0.7-3.3-0.9l2.5-10.1l0.9-4l2.1-8.3l0.8-3.4l7.2-29.7c1.1,0.4,2.2,0.7,3.4,0.8
			l-7.2,29.8l-0.8,3.4l-2.5,10.3l-0.9,4L373,511.1"/>
		<path class="st7" d="M414,533.2l-8.8-25c1.1-0.3,2.2-0.7,3.2-1.2l8.8,25C416.1,532.4,415,532.8,414,533.2"/>
		<path class="st7" d="M399.9,511.1c-10.2,0-18.3-8.3-18.5-18.5c0-10.2,8.3-18.3,18.5-18.5c10.2,0,18.3,8.3,18.5,18.5
			C418.4,502.9,410.1,511.1,399.9,511.1"/>
		<path class="st7" d="M388.4,457.7c-0.7,0-1.2,0-1.8-0.2c-1.2-0.2-2.3-0.4-3.4-0.8s-2.1-0.9-3.1-1.6c-0.9-0.7-1.9-1.4-2.6-2.2
			c-2.5-2.7-4-6.3-4-10.2c0-8.3,6.6-15,15-15c8.3,0,15,6.6,15,15c0,1.3-0.2,2.8-0.6,4c-0.3,1.1-0.7,2.2-1.3,3.2
			C399,454.6,394,457.7,388.4,457.7"/>
		<path class="st7" d="M357.5,494c-6.4,0-11.5-5.1-11.6-11.6c0-6.4,5.1-11.5,11.6-11.6c6.4,0,11.5,5,11.6,11.6
			C368.9,488.9,363.8,494,357.5,494"/>
		<path class="st7" d="M367.7,513.6c-6.4,0-11.5,5.1-11.6,11.6c0,6.4,5.1,11.5,11.6,11.5c6.4,0,11.5-5,11.6-11.5
			C379.1,518.8,374,513.7,367.7,513.6"/>
		<path class="st7" d="M367.7,540.1c-8.3,0-15-6.6-15-15c0-8.3,6.6-15,15-15c0.7,0,1.3,0,2,0.2c1.2,0.2,2.3,0.5,3.3,0.9
			c5.6,2.1,9.7,7.7,9.7,14c0,1.3-0.2,2.6-0.5,3.9c-0.3,1.1-0.7,2.2-1.2,3.2C378.2,536.9,373.4,540.1,367.7,540.1"/>
		<path class="st7" d="M418,555.1c-6.4,0-11.5-5.1-11.6-11.6c0-6.4,5.1-11.5,11.6-11.6c6.4,0,11.5,5,11.5,11.6
			C429.4,549.9,424.2,555,418,555.1"/>
		<circle class="st8" cx="400.6" cy="496" r="78.6"/>
		<path class="st7" d="M453.9,498.9c-0.7,0-1.2,0-1.8-0.2c-1.2-0.2-2.3-0.4-3.4-0.8s-2.1-0.9-3.1-1.6c-0.9-0.7-1.9-1.4-2.6-2.2
			c-2.5-2.7-4-6.3-4-10.2c0-8.3,6.6-15,15-15s15,6.6,15,15c0,1.3-0.2,2.8-0.6,4c-0.3,1.1-0.7,2.2-1.3,3.2
			C464.4,495.7,459.5,498.9,453.9,498.9"/>
		<path class="st7" d="M417.5,477.3c-0.7,0-1.2,0-1.8-0.2c-1.2-0.2-2.3-0.4-3.4-0.8s-2.1-0.9-3.1-1.6s-1.9-1.4-2.6-2.2
			c-2.5-2.7-4-6.3-4-10.2c0-8.3,6.6-15,15-15c8.3,0,15,6.6,15,15c0,1.3-0.2,2.8-0.6,4c-0.3,1.1-0.7,2.2-1.3,3.2
			C428,474.1,423.1,477.3,417.5,477.3"/>
	</g>
	<g>
		<path class="st9" d="M398.3,680.7l-2.4-2.3c0.2-0.2,0.6-0.4,0.8-0.8l2,1.9L398.3,680.7"/>
		<path class="st9" d="M409.1,691.6l-10.1-10l0.3-1.2l10.6,10.4C409.6,691.1,409.3,691.4,409.1,691.6"/>
		<path class="st9" d="M408.2,693.1l-7.4-3c0.1-0.3,0.3-0.7,0.4-1l7.4,3C408.6,692.5,408.4,692.8,408.2,693.1"/>
		<path class="st9" d="M398.6,684c-0.3-0.1-0.7-0.2-1-0.2l0.8-2.9l0.3-1.2l0.7-2.4l0.2-1l2.1-8.6c0.3,0.1,0.7,0.2,1,0.2l-2.1,8.6
			l-0.2,1l-0.8,3l-0.3,1.2L398.6,684"/>
		<path class="st9" d="M403,666.8c-1.8,0-3.4-1.4-3.4-3.4c0-1.8,1.4-3.4,3.4-3.4c1.8,0,3.4,1.4,3.4,3.4
			C406.5,665.2,404.9,666.8,403,666.8"/>
		<path class="st9" d="M403,660c-1.8,0-3.4,1.4-3.4,3.4c0,1.8,1.4,3.4,3.4,3.4c1.8,0,3.4-1.4,3.4-3.4C406.5,661.4,404.8,660,403,660
			"/>
		<path class="st9" d="M403,667.8c-0.2,0-0.3,0-0.6,0c-0.3,0-0.7-0.1-1-0.2c-0.3-0.1-0.7-0.3-1-0.4c-0.3-0.2-0.6-0.4-0.8-0.7
			c-0.8-0.8-1.2-1.8-1.2-3c0-2.4,1.9-4.3,4.3-4.3c2.4,0,4.3,1.9,4.3,4.3c0,0.4,0,0.9-0.1,1.2s-0.2,0.7-0.4,1
			C406.1,666.9,404.7,667.8,403,667.8"/>
		<path class="st9" d="M393.1,678.4c-1.8,0-3.4-1.4-3.4-3.4c0-1.8,1.4-3.4,3.4-3.4c1.8,0,3.4,1.4,3.4,3.4
			C396.5,676.8,395,678.3,393.1,678.4"/>
		<path class="st9" d="M393.1,671.6c-1.8,0-3.4,1.4-3.4,3.4c0,1.8,1.4,3.4,3.4,3.4c1.9,0,3.4-1.4,3.4-3.4
			C396.5,673.1,395,671.6,393.1,671.6 M393.1,679.4c-2.3,0-4.3-1.9-4.3-4.2V675c0-2.3,2-4.2,4.3-4.2c0.9,0,1.7,0.3,2.4,0.8
			c0.3,0.2,0.6,0.4,0.8,0.7c0.8,0.8,1.2,1.8,1.2,3c0,0.2,0,0.4,0,0.7c0,0.3-0.1,0.7-0.3,1c-0.1,0.4-0.3,0.8-0.7,1.1
			c-0.2,0.3-0.4,0.6-0.8,0.8C395.1,679.1,394.1,679.4,393.1,679.4 M397.1,691.5c-1.8,0-3.4-1.4-3.4-3.4c0-1.8,1.4-3.4,3.4-3.4
			c1.8,0,3.4,1.4,3.4,3.4C400.5,690,398.9,691.5,397.1,691.5"/>
		<path class="st9" d="M397.1,684.8c-1.8,0-3.4,1.4-3.4,3.4c0,1.8,1.4,3.4,3.4,3.4c1.9,0,3.4-1.4,3.4-3.4
			C400.4,686.3,398.9,684.8,397.1,684.8 M397.1,692.5c-2.4,0-4.3-1.9-4.3-4.3s1.9-4.3,4.3-4.3c0.2,0,0.4,0,0.6,0
			c0.3,0,0.7,0.1,1,0.2c1.6,0.7,2.8,2.2,2.8,4.1c0,0.4,0,0.8-0.1,1.2c-0.1,0.3-0.2,0.7-0.4,1C400,691.6,398.7,692.5,397.1,692.5
			 M412.5,697.8c-1.8,0-3.4-1.4-3.4-3.4c0-1.8,1.4-3.4,3.4-3.4c1.8,0,3.4,1.4,3.4,3.4C415.9,696.2,414.3,697.8,412.5,697.8"/>
		<path class="st9" d="M412.5,691c-1.8,0-3.4,1.4-3.4,3.4c0,1.8,1.4,3.4,3.4,3.4c1.8,0,3.4-1.4,3.4-3.4S414.3,691.1,412.5,691
			 M412.5,698.8c-2.4,0-4.3-1.9-4.3-4.3c0-0.4,0.1-0.9,0.2-1.2c0.1-0.3,0.2-0.7,0.4-1c0.1-0.2,0.3-0.4,0.4-0.7
			c0.2-0.2,0.4-0.6,0.8-0.8c0.2-0.1,0.4-0.3,0.7-0.4c0.3-0.1,0.7-0.2,1-0.3c0.3-0.1,0.7-0.1,1-0.1c0.4,0,0.8,0,1.2,0.1
			c0.3,0.1,0.7,0.2,1,0.4c1.3,0.8,2.3,2.2,2.3,3.8C416.9,696.9,415,698.8,412.5,698.8"/>
		<path class="st9" d="M429.2,679.7h-3.3c0,11.9-9.5,21.4-21.4,21.4c-11.9,0-21.4-9.5-21.4-21.4c0-11.9,9.5-21.4,21.4-21.4
			c11.9,0,21.4,9.5,21.4,21.4h6.4c0-15.5-12.5-28-28-28s-27.8,12.5-27.8,28c0,15.5,12.5,28,28,28c15.5,0,28-12.5,28-28H429.2"/>
		<path class="st9" d="M415,683.9c-1.8,0-3.4-1.4-3.4-3.4c0-1.8,1.4-3.4,3.4-3.4c1.8,0,3.4,1.4,3.4,3.4
			C418.3,682.4,416.8,683.9,415,683.9"/>
		<path class="st9" d="M397.2,687.4c-0.1-0.3-0.2-0.7-0.3-1l2.8-1.1l1.1-0.4l2.3-1l1-0.4l8.3-3.3c0.1,0.3,0.2,0.7,0.4,1l-8.4,3.3
			l-1,0.4l-2.9,1.2l-1.1,0.4L397.2,687.4"/>
	</g>
	<g>
		<path class="st10" d="M353.3,720.8l-1.6-1.6c0.1-0.1,0.3-0.3,0.4-0.4l1.3,1.3L353.3,720.8"/>
		<path class="st10" d="M360.1,727.7l-6.4-6.2l0.1-0.7l6.7,6.5C360.4,727.4,360.2,727.6,360.1,727.7"/>
		<path class="st10" d="M359.5,728.9l-4.7-1.8c0.1-0.1,0.1-0.4,0.3-0.6l4.7,1.8C359.6,728.5,359.6,728.6,359.5,728.9"/>
		<path class="st10" d="M353.4,723c-0.1-0.1-0.4-0.1-0.6-0.1l0.4-1.8l0.1-0.7l0.4-1.6l0.1-0.6l1.3-5.5c0.1,0.1,0.4,0.1,0.6,0.1
			l-1.5,5.5l-0.1,0.6l-0.4,1.9l-0.1,0.7L353.4,723"/>
		<path class="st10" d="M365.2,721.2c-1.2,0-2.1,1-2.1,2.1c0,1,1,2.1,2.1,2.1c1,0,2.1-1,2.1-2.1
			C367.3,722.3,366.6,721.2,365.2,721.2"/>
		<path class="st10" d="M355.2,715.9c-0.1,0-0.3,0-0.3,0c-0.3,0-0.4-0.1-0.6-0.1c-0.1-0.1-0.4-0.1-0.6-0.3c-0.1-0.1-0.3-0.3-0.4-0.4
			c-0.4-0.6-0.7-1.2-0.7-1.8c0-1.6,1.3-2.8,2.8-2.8s2.8,1.3,2.8,2.8c0,0.3,0,0.6-0.1,0.7c0,0.3-0.1,0.4-0.3,0.6
			C357.1,715.3,356.2,715.9,355.2,715.9"/>
		<path class="st10" d="M349.9,719.5c-1.2,0-2.1-1-2.1-2.1c0-1,1-2.1,2.1-2.1c1,0,2.1,1,2.1,2.1
			C352.2,718.4,351.2,719.5,349.9,719.5"/>
		<path class="st10" d="M349.9,715c-1.2,0-2.1,1-2.1,2.1c0,1,1,2.1,2.1,2.1c1,0,2.1-1,2.1-2.1C351.9,716.1,351.2,715.2,349.9,715
			 M349.9,720.1c-1.6,0-2.7-1.3-2.8-2.7v-0.1c0-1.6,1.3-2.7,2.8-2.7c0.6,0,1.2,0.1,1.6,0.4c0.1,0.1,0.3,0.3,0.4,0.4
			c0.4,0.6,0.7,1.2,0.7,1.8c0,0.1,0,0.3,0,0.4c0,0.3-0.1,0.4-0.1,0.6c-0.1,0.3-0.3,0.4-0.4,0.7c-0.1,0.1-0.3,0.3-0.4,0.4
			C351.2,719.8,350.6,720.1,349.9,720.1 M352.5,727.7c-1.2,0-2.1-1-2.1-2.1c0-1,1-2.1,2.1-2.1c1,0,2.1,1,2.1,2.1
			C354.6,726.7,353.5,727.7,352.5,727.7"/>
		<path class="st10" d="M352.5,723.6c-1.2,0-2.1,1-2.1,2.1c0,1,1,2.1,2.1,2.1c1,0,2.1-1,2.1-2.1
			C354.6,724.6,353.5,723.6,352.5,723.6 M352.5,728.5c-1.6,0-2.8-1.3-2.8-2.8c0-1.5,1.3-2.8,2.8-2.8c0.1,0,0.3,0,0.4,0
			c0.3,0,0.4,0.1,0.6,0.1c1,0.4,1.8,1.5,1.8,2.5c0,0.3,0,0.4-0.1,0.7c0,0.3-0.1,0.4-0.3,0.6C354.4,727.7,353.4,728.5,352.5,728.5
			 M362.3,731.7c-1.2,0-2.1-1-2.1-2.1c0-1,1-2.1,2.1-2.1s2.1,1,2.1,2.1C364.3,730.7,363.3,731.7,362.3,731.7"/>
		<path class="st10" d="M362.3,727.4c-1.2,0-2.1,1-2.1,2.1c0,1,1,2.1,2.1,2.1s2.1-1,2.1-2.1C364.3,728.5,363.3,727.4,362.3,727.4
			 M362.3,732.5c-1.6,0-2.8-1.3-2.8-2.8c0-0.3,0-0.6,0.1-0.9c0-0.3,0.1-0.4,0.3-0.6c0.1-0.1,0.1-0.3,0.3-0.4
			c0.1-0.1,0.3-0.3,0.4-0.4c0.1-0.1,0.3-0.1,0.4-0.3s0.4-0.1,0.6-0.3c0.1,0,0.4-0.1,0.6-0.1c0.3,0,0.4,0,0.7,0.1
			c0.3,0,0.4,0.1,0.6,0.3c0.9,0.4,1.5,1.5,1.5,2.4C365.1,731.1,363.8,732.5,362.3,732.5"/>
		<path class="st10" d="M372.9,720.2h-2.1c0,7.5-6.1,13.8-13.8,13.8s-13.8-6.1-13.8-13.8c0-7.5,6.1-13.8,13.8-13.8
			c7.5,0,13.8,6.1,13.8,13.8h4.1c0-9.8-8-17.9-17.9-17.9c-9.9,0-17.9,8-17.9,17.9s8,17.9,17.9,17.9c9.9,0,17.9-8,17.9-17.9H372.9"/>
		<path class="st10" d="M363.5,720.2c-0.1,0-0.3,0-0.4,0c-0.3,0-0.6-0.1-0.9-0.1c-0.3-0.1-0.6-0.3-0.7-0.4c-0.3-0.1-0.4-0.3-0.7-0.6
			c-0.6-0.7-1-1.6-1-2.5c0-2.1,1.6-3.7,3.7-3.7c1.9,0,3.7,1.6,3.7,3.7c0,0.3,0,0.7-0.1,1c-0.1,0.3-0.1,0.6-0.3,0.9
			C366.1,719.5,364.9,720.2,363.5,720.2"/>
		<path class="st10" d="M354.6,725.2c-0.1-0.1-0.3-0.3-0.4-0.4l1.5-1.3l0.6-0.6l1.2-1.2l0.4-0.4l4.1-3.8c0.1,0.1,0.3,0.3,0.4,0.4
			l-4.3,3.8l-0.4,0.4l-1.5,1.3l-0.6,0.6L354.6,725.2"/>
		<path class="st10" d="M365.5,724c-0.3,0-0.4,0.1-0.6,0.1l-0.4-1.8l-0.1-0.7l-0.4-1.6l-0.1-0.6l-1.5-5.5c0.1,0,0.4-0.1,0.6-0.1
			l1.5,5.5l0.1,0.6l0.4,1.8l0.1,0.7L365.5,724"/>
	</g>
	<g>
		<path class="st11" d="M371.8,649.1l1.5-1.4c-0.2-0.1-0.3-0.3-0.5-0.5l-1.2,1.2L371.8,649.1"/>
		<path class="st11" d="M365,655.8l6.2-6.1L371,649l-6.5,6.4C364.7,655.5,364.9,655.7,365,655.8"/>
		<path class="st11" d="M365.5,656.9l4.6-1.8c-0.1-0.2-0.2-0.4-0.2-0.6l-4.6,1.8C365.4,656.5,365.4,656.7,365.5,656.9"/>
		<path class="st11" d="M371.6,651.2c0.2-0.1,0.4-0.1,0.6-0.2l-0.5-1.8l-0.2-0.8l-0.4-1.5l-0.2-0.6l-1.3-5.5
			c-0.2,0.1-0.4,0.1-0.6,0.2l1.3,5.5l0.2,0.6l0.5,1.9l0.2,0.8L371.6,651.2"/>
		<path class="st11" d="M368.8,640.4c1.1,0,2.1-1,2.1-2.1s-1-2.1-2.1-2.1s-2.1,1-2.1,2.1S367.6,640.4,368.8,640.4"/>
		<path class="st11" d="M368.8,636.1c1.1,0,2.1,1,2.1,2.1s-1,2.1-2.1,2.1s-2.1-1-2.1-2.1C366.7,637.1,367.6,636.1,368.8,636.1"/>
		<path class="st11" d="M368.8,641c0.1,0,0.2,0,0.3,0c0.2,0,0.4-0.1,0.6-0.2c0.2-0.1,0.4-0.2,0.6-0.3s0.4-0.3,0.5-0.4
			c0.5-0.5,0.8-1.1,0.8-1.8c0-1.5-1.2-2.7-2.7-2.7s-2.7,1.2-2.7,2.7c0,0.3,0,0.5,0.1,0.8c0.1,0.2,0.1,0.4,0.3,0.6
			C366.9,640.5,367.7,641,368.8,641"/>
		<path class="st11" d="M375,647.6c1.1,0,2.1-1,2.1-2.1s-1-2.1-2.1-2.1s-2.1,1-2.1,2.1C372.9,646.8,373.8,647.6,375,647.6"/>
		<path class="st11" d="M375.1,643.5c1.1,0,2.1,1,2.1,2.1s-1,2.1-2.1,2.1s-2.1-1-2.1-2.1C372.9,644.4,373.9,643.5,375.1,643.5
			 M375.1,648.3c1.4,0,2.7-1.1,2.7-2.7v-0.1c0-1.4-1.2-2.7-2.7-2.7c-0.6,0-1.1,0.2-1.5,0.5c-0.2,0.1-0.4,0.3-0.5,0.4
			c-0.5,0.5-0.8,1.1-0.8,1.8c0,0.1,0,0.3,0,0.4c0,0.2,0.1,0.4,0.2,0.6c0.1,0.2,0.2,0.5,0.4,0.7c0.1,0.2,0.3,0.3,0.5,0.5
			C373.8,648,374.4,648.3,375.1,648.3 M372.5,655.7c1.1,0,2.1-1,2.1-2.1s-1-2.1-2.1-2.1s-2.1,1-2.1,2.1
			C370.5,654.8,371.4,655.7,372.5,655.7"/>
		<path class="st11" d="M372.5,651.6c1.1,0,2.1,1,2.1,2.1s-1,2.1-2.1,2.1s-2.1-1-2.1-2.1C370.5,652.5,371.4,651.6,372.5,651.6
			 M372.5,656.5c1.5,0,2.7-1.2,2.7-2.7s-1.2-2.7-2.7-2.7c-0.1,0-0.3,0-0.4,0c-0.2,0-0.4,0.1-0.6,0.2c-1.1,0.4-1.7,1.3-1.7,2.6
			c0,0.3,0,0.5,0.1,0.7s0.1,0.4,0.2,0.6C370.6,655.8,371.6,656.5,372.5,656.5 M363,659.8c1.1,0,2.1-1,2.1-2.1s-1-2.1-2.1-2.1
			s-2.1,1-2.1,2.1C360.8,658.8,361.8,659.8,363,659.8"/>
		<path class="st11" d="M363,655.5c1.1,0,2.1,1,2.1,2.1s-1,2.1-2.1,2.1s-2.1-1-2.1-2.1C360.8,656.5,361.8,655.5,363,655.5
			 M363,660.4c1.5,0,2.7-1.2,2.7-2.7c0-0.3,0-0.6-0.1-0.8s-0.2-0.4-0.3-0.6s-0.2-0.3-0.3-0.4c-0.1-0.2-0.3-0.3-0.5-0.5
			c-0.1-0.1-0.3-0.2-0.4-0.2c-0.2-0.1-0.4-0.2-0.6-0.2s-0.4-0.1-0.6-0.1c-0.3,0-0.5,0-0.7,0.1s-0.4,0.1-0.6,0.2
			c-0.9,0.5-1.4,1.3-1.4,2.4C360.2,659.2,361.4,660.4,363,660.4"/>
		<path class="st11" d="M352.4,648.5h2c0,7.4,5.9,13.4,13.4,13.4c7.4,0,13.4-5.9,13.4-13.4s-5.9-13.4-13.4-13.4
			c-7.4,0-13.4,5.9-13.4,13.4h-4c0-9.7,7.8-17.4,17.4-17.4c9.7,0,17.4,7.8,17.4,17.4c0,9.7-7.8,17.4-17.4,17.4
			c-9.7,0-17.4-7.8-17.4-17.4H352.4"/>
		<path class="st11" d="M359.4,651c0.1,0,0.2,0,0.3,0c0.2,0,0.4-0.1,0.6-0.2c0.2-0.1,0.4-0.2,0.6-0.3s0.4-0.3,0.5-0.4
			c0.5-0.5,0.8-1.1,0.8-1.8c0-1.5-1.2-2.7-2.7-2.7s-2.7,1.2-2.7,2.7c0,0.3,0,0.5,0.1,0.8c0.1,0.2,0.1,0.4,0.3,0.6
			C357.5,650.4,358.4,651,359.4,651"/>
		<path class="st11" d="M362.3,657.8c0.2-0.1,0.4-0.2,0.6-0.2l-0.6-1.7l-0.3-0.7l-0.5-1.5l-0.2-0.6l-1.8-5.3
			c-0.2,0.1-0.4,0.2-0.6,0.2l1.8,5.3l0.2,0.6l0.7,1.8l0.3,0.7L362.3,657.8"/>
	</g>
	<g>
		<path class="st12" d="M309,674l-3.4,3.4c0.4,0.3,0.7,0.7,1,1.1l2.8-2.7L309,674"/>
		<path class="st12" d="M324.1,659.1l-14,13.8l0.4,1.6l14.6-14.5C324.8,659.8,324.5,659.5,324.1,659.1"/>
		<path class="st12" d="M322.9,656.9l-10.4,4.1c0.2,0.4,0.4,0.9,0.6,1.3l10.4-4.1C323.2,657.8,323,657.4,322.9,656.9"/>
		<path class="st12" d="M309.4,669.5c-0.5,0.2-0.9,0.3-1.3,0.4l1,4l0.4,1.6l0.9,3.4l0.3,1.3l3,12.2c0.5-0.2,0.9-0.3,1.3-0.3l-3-12.3
			l-0.3-1.3l-1.1-4.2l-0.4-1.6L309.4,669.5"/>
		<path class="st12" d="M314.8,686.7c-0.3,0-0.6,0-0.9,0.1c-0.6,0.1-1.1,0.2-1.5,0.4c-0.5,0.2-1,0.4-1.4,0.8s-0.9,0.7-1.2,1.1
			c-1.1,1.2-1.8,2.9-1.8,4.6c0,3.7,3.1,6.8,6.8,6.8s6.8-3.1,6.8-6.8c0-0.7-0.1-1.2-0.3-1.8c-0.1-0.5-0.4-1.1-0.6-1.4
			C319.6,688.1,317.4,686.7,314.8,686.7"/>
		<path class="st12" d="M302.7,685.4c-2.6,0-4.7-2.1-4.7-4.7c0-2.6,2.1-4.7,4.7-4.7s4.7,2.1,4.7,4.7
			C307.5,683.3,305.4,685.4,302.7,685.4"/>
		<path class="st12" d="M307.1,659.2c-2.6,0-4.7,2.1-4.7,4.7c0,2.6,2.1,4.7,4.7,4.7s4.7-2.1,4.7-4.7
			C311.8,661.3,309.7,659.2,307.1,659.2"/>
		<path class="st12" d="M307.1,668.6c-2.6,0-4.7-2.1-4.7-4.7c0-2.6,2.1-4.7,4.7-4.7s4.7,2.1,4.7,4.7
			C311.8,666.5,309.7,668.6,307.1,668.6 M307.1,657.8c-3.4,0-6.1,2.7-6.1,6.1c0,3.4,2.7,6.1,6.1,6.1c0.3,0,0.6,0,0.8-0.1
			c0.5-0.1,1-0.2,1.3-0.4c2.3-0.9,3.9-3.1,3.9-5.6c0-0.6-0.1-1.1-0.2-1.6s-0.3-0.9-0.6-1.3C311.5,659.1,309.4,657.8,307.1,657.8
			 M328.8,650.4c-2.6,0-4.7,2.1-4.7,4.7c0,2.6,2.1,4.7,4.7,4.7s4.7-2.1,4.7-4.7C333.4,652.5,331.3,650.4,328.8,650.4"/>
		<path class="st12" d="M328.8,659.8c-2.6,0-4.7-2.1-4.7-4.7c0-2.6,2.1-4.7,4.7-4.7s4.7,2.1,4.7,4.7
			C333.4,657.7,331.3,659.8,328.8,659.8 M328.8,649c-3.4,0-6.1,2.7-6.1,6.1c0,0.6,0.1,1.1,0.3,1.7c0.1,0.5,0.3,0.9,0.6,1.3
			c0.2,0.3,0.4,0.7,0.7,1c0.3,0.4,0.7,0.7,1.1,1c0.3,0.2,0.6,0.4,0.9,0.6c0.4,0.2,0.9,0.4,1.3,0.5c0.5,0.1,0.9,0.2,1.3,0.2
			c0.6,0,1.1-0.1,1.5-0.2c0.5-0.1,0.9-0.3,1.3-0.6c1.9-1.1,3.2-3.1,3.2-5.4C334.8,651.7,332.1,649,328.8,649"/>
		<path class="st12" d="M352,675.6h-4.5c0-16.5-13.4-29.9-30-30c-16.5,0-29.9,13.4-30,30c0,16.5,13.4,29.9,30,30
			c16.5,0,29.9-13.4,30-30h9.2c0,21.4-17.4,39-39,39c-21.5,0-39-17.4-39-39c0-21.5,17.4-39,39-39c21.4,0,39,17.4,39,39H352"/>
		<path class="st12" d="M331.9,671.9c-0.4,0-0.8,0-1.1,0.1c-0.7,0.1-1.4,0.3-2.1,0.5c-0.7,0.3-1.3,0.6-1.9,1s-1.1,0.9-1.6,1.3
			c-1.5,1.6-2.4,3.8-2.4,6.1c0,5,4,9.2,9.2,9.2c5.1,0,9.2-4,9.2-9.2c0-0.9-0.1-1.6-0.3-2.4c-0.2-0.7-0.5-1.3-0.8-1.9
			C338.4,673.8,335.3,671.9,331.9,671.9"/>
		<path class="st12" d="M328.8,657.9l1.6,19.5l1.5,0.8l-1.7-20.5C329.7,657.8,329.3,657.9,328.8,657.9"/>
	</g>
	<g>
		<path class="st13" d="M483.1,626.5l3.2-3.2c-0.4-0.3-0.7-0.7-1.1-1.1l-2.7,2.6L483.1,626.5"/>
		<path class="st13" d="M468.4,641.2l13.6-13.6l-0.4-1.5l-14.3,14.1C467.8,640.5,468,640.9,468.4,641.2"/>
		<path class="st13" d="M482.7,630.9c0.4-0.1,0.9-0.3,1.3-0.4l-1.1-4l-0.4-1.5l-0.8-3.4l-0.4-1.3l-2.8-11.7
			c-0.4,0.1-0.9,0.3-1.3,0.4l2.8,11.8l0.4,1.3l1.1,4.2l0.4,1.5L482.7,630.9"/>
		<path class="st13" d="M465.3,613.1c2.4,0,4.6-2,4.6-4.6c0-2.4-2-4.6-4.6-4.6c-2.6,0-4.6,2-4.6,4.6
			C460.5,611.1,462.6,613.1,465.3,613.1"/>
		<path class="st13" d="M469.1,621.3c1.7,0,3.4,1.5,3.4,3.4c0,1.7-1.5,3.4-3.4,3.4c-1.7,0-3.4-1.5-3.4-3.4
			C465.7,622.9,467.2,621.3,469.1,621.3"/>
		<path class="st13" d="M478,613.1c0.1,0,0.3,0,0.4,0c0.3,0,0.5-0.1,0.8-0.3s0.5-0.3,0.8-0.4c0.3-0.1,0.5-0.4,0.7-0.5
			c0.7-0.7,1.1-1.5,1.1-2.4c0-2-1.6-3.8-3.8-3.8c-2.2,0-3.8,1.6-3.8,3.8c0,0.4,0,0.7,0.1,1.1c0.1,0.3,0.1,0.5,0.4,0.8
			C475.4,612.1,476.6,613.1,478,613.1"/>
		<path class="st13" d="M490.2,623.3c2.4,0,4.6-2,4.6-4.6c0-2.4-2-4.6-4.6-4.6c-2.6,0-4.6,2-4.6,4.6
			C485.7,621.2,487.7,623.3,490.2,623.3"/>
		<path class="st13" d="M490.2,614.3c2.4,0,4.6,2,4.6,4.6c0,2.4-2,4.6-4.6,4.6c-2.6,0-4.6-2-4.6-4.6
			C485.5,616.2,487.7,614.3,490.2,614.3 M490.2,624.7c3.2,0,5.8-2.6,5.9-5.8v-0.3c-0.1-3.2-2.7-5.8-5.9-5.8c-1.2,0-2.3,0.4-3.4,1.1
			c-0.4,0.3-0.8,0.5-1.1,0.9c-1.1,1.1-1.5,2.4-1.5,4c0,0.3,0,0.7,0.1,0.9c0.1,0.5,0.1,0.9,0.4,1.3c0.3,0.5,0.5,1.1,0.8,1.5
			c0.3,0.4,0.7,0.7,1.1,1.1C487.5,624.1,488.7,624.7,490.2,624.7 M484.7,641.2c2.4,0,4.6-2,4.6-4.6c0-2.4-2-4.6-4.6-4.6
			s-4.6,2-4.6,4.6C480.3,639.1,482.3,641.1,484.7,641.2"/>
		<path class="st13" d="M484.7,631.9c2.4,0,4.6,2,4.6,4.6c0,2.4-2,4.6-4.6,4.6s-4.6-2-4.6-4.6C480.3,633.9,482.3,631.9,484.7,631.9
			 M484.7,642.4c3.2,0,5.9-2.7,5.9-5.9c0-3.2-2.7-5.9-5.9-5.9c-0.3,0-0.5,0-0.8,0c-0.5,0-0.9,0.1-1.3,0.4c-2.2,0.9-3.9,3-3.9,5.5
			c0,0.5,0.1,1.1,0.3,1.5c0.1,0.5,0.3,0.9,0.5,1.3C480.7,641.3,482.6,642.4,484.7,642.4 M463.8,649.7c2.4,0,4.6-2,4.6-4.6
			c0-2.4-2-4.6-4.6-4.6c-2.6,0-4.6,2-4.6,4.6S461.2,649.7,463.8,649.7"/>
		<path class="st13" d="M463.8,640.5c2.4,0,4.6,2,4.6,4.6c0,2.4-2,4.6-4.6,4.6c-2.6,0-4.6-2-4.6-4.6S461.2,640.5,463.8,640.5
			 M463.8,650.9c3.2,0,5.9-2.7,5.9-5.9c0-0.7-0.1-1.2-0.3-1.6c-0.1-0.5-0.4-0.9-0.5-1.3c-0.1-0.4-0.4-0.7-0.7-0.9
			c-0.3-0.4-0.7-0.7-1.1-0.9c-0.3-0.1-0.5-0.4-0.9-0.5c-0.4-0.3-0.9-0.4-1.3-0.5c-0.4-0.1-0.9-0.1-1.3-0.1c-0.5,0-1.1,0.1-1.5,0.3
			c-0.5,0.1-0.9,0.3-1.3,0.5c-1.7,1.1-3.1,3-3.1,5.2C457.8,648.3,460.4,650.9,463.8,650.9"/>
		<path class="st13" d="M441.1,625.2h4.4c0,16.1,13.2,28.9,29.1,29.1c16.1,0,28.9-13.1,29.1-29.1c0-16.1-13.2-28.9-29.1-29.1
			c-16.1,0-28.9,13.2-29.1,29.1h-8.7c0-21,17-38,37.9-38s37.9,17,37.9,38s-17,37.9-37.9,37.9s-37.9-17-37.9-37.9H441.1"/>
		<path class="st13" d="M459.3,624.9c2.4,0,4.6-2,4.6-4.6c0-2.4-2-4.6-4.6-4.6c-2.6,0-4.6,2-4.6,4.6
			C454.6,622.9,456.7,624.9,459.3,624.9"/>
		<path class="st13" d="M462.2,644.3c0.4-0.1,0.9-0.1,1.5-0.3l-0.5-4l-0.4-1.5l-0.4-3.4l-0.1-1.5l-1.5-12.1
			c-0.4,0.1-0.9,0.1-1.5,0.1l1.5,12.2l0.1,1.5l0.5,4.2l0.3,1.5L462.2,644.3"/>
		<path class="st13" d="M469,626.9c0.4-0.1,0.7-0.3,1.1-0.4l-0.8-4L469,621l-0.7-3.4l-0.3-1.3l-2.3-11.7c-0.4,0.1-0.7,0.3-1.1,0.4
			l2.3,11.8l0.3,1.3l0.8,4.2l0.3,1.5L469,626.9"/>
		<path class="st13" d="M485.9,638.9c0.3-0.4,0.5-0.8,0.8-1.2l-3.2-2.4l-1.3-1.1l-2.7-2l-1.2-0.9l-9.7-7.4c-0.3,0.4-0.5,0.8-0.9,1.2
			l9.7,7.4l1.2,0.9l3.4,2.6l1.3,1.1L485.9,638.9"/>
	</g>
	<g>
		<path class="st14" d="M251.2,641.2l-14.5-5.7c0.3-0.6,0.6-1.1,0.8-1.8l14.5,5.7C251.6,639.9,251.3,640.5,251.2,641.2"/>
		<path class="st14" d="M220.3,607.4c0.2-0.7,0.2-1.2,0.2-1.9l5.7,0.6l2.3,0.2l4.9,0.5l2,0.2l17.3,1.6c-0.1,0.7-0.2,1.3-0.2,2
			l-17.4-1.6l-2-0.2l-5.9-0.6l-2.3-0.2L220.3,607.4"/>
		<path class="st14" d="M254.3,592.3c-3.5,0-6.5-2.9-6.5-6.5c0-3.5,2.9-6.5,6.5-6.5c3.5,0,6.5,2.9,6.5,6.5
			C260.8,589.4,257.9,592.3,254.3,592.3"/>
		<path class="st14" d="M272,622.7c-3.5,0-6.5,2.9-6.5,6.5c0,3.5,2.9,6.5,6.5,6.5c3.5,0,6.5-2.9,6.5-6.5S275.7,622.7,272,622.7"/>
		<path class="st14" d="M238.8,599.5c-0.3,0-0.6,0-0.9-0.1c-0.6-0.1-1.1-0.2-1.6-0.4c-0.6-0.2-1.1-0.5-1.5-0.8
			c-0.5-0.3-0.9-0.7-1.2-1.1c-1.1-1.2-1.9-3-1.9-4.9c0-3.9,3.2-7.2,7.2-7.2c3.9,0,7.2,3.2,7.2,7.2c0,0.7-0.1,1.3-0.3,1.9
			s-0.4,1.1-0.7,1.5C243.9,598,241.5,599.5,238.8,599.5"/>
		<path class="st14" d="M221.8,612.5c-3.5,0-6.5-2.9-6.5-6.5c0-3.5,2.9-6.5,6.5-6.5c3.5,0,6.5,2.9,6.5,6.5
			C228.3,609.5,225.3,612.5,221.8,612.5"/>
		<path class="st14" d="M221.8,599.4c-3.5,0-6.5,2.9-6.5,6.5c0,3.5,2.9,6.5,6.5,6.5c3.5,0,6.5-2.9,6.5-6.5
			C228.2,602.3,225.3,599.4,221.8,599.4"/>
		<path class="st14" d="M221.8,614.4c-4.6,0-8.3-3.6-8.5-8.2v-0.4c0.1-4.6,3.8-8.2,8.5-8.2c1.7,0,3.4,0.6,4.7,1.4
			c0.6,0.4,1.1,0.8,1.5,1.2c1.4,1.5,2.3,3.5,2.3,5.7c0,0.4,0,0.9-0.1,1.2c-0.1,0.7-0.3,1.3-0.6,1.9c-0.3,0.8-0.7,1.4-1.1,2
			c-0.4,0.6-0.9,1-1.3,1.4C225.6,613.7,223.7,614.4,221.8,614.4"/>
		<path class="st14" d="M229.2,637.8c-3.5,0-6.5-2.9-6.5-6.5c0-3.5,2.9-6.5,6.5-6.5c3.5,0,6.5,2.9,6.5,6.5
			C235.8,634.9,232.9,637.8,229.2,637.8"/>
		<path class="st14" d="M229.2,624.8c-3.5,0-6.5,2.9-6.5,6.5c0,3.5,2.9,6.5,6.5,6.5c3.5,0,6.5-2.9,6.5-6.5
			C235.8,627.7,232.9,624.8,229.2,624.8"/>
		<path class="st14" d="M231.5,642.4c-5.6,0-10.3-4.6-10.3-10.3c0-5.6,4.6-10.3,10.3-10.3c0.5,0,0.9,0,1.3,0.1
			c0.8,0.1,1.6,0.3,2.3,0.6c3.8,1.4,6.6,5.2,6.6,9.7c0,1-0.1,1.8-0.4,2.7c-0.2,0.8-0.5,1.5-0.9,2.2
			C238.9,640.2,235.6,642.4,231.5,642.4"/>
		<path class="st14" d="M254.9,648.5c-3.5,0-6.5-2.9-6.5-6.5c0-3.5,2.9-6.5,6.5-6.5c3.5,0,6.5,2.9,6.5,6.5S258.5,648.5,254.9,648.5"
			/>
		<path class="st14" d="M291.7,615.2h-6.3c0,22.9-18.7,41.4-41.5,41.5c-22.9,0-41.4-18.6-41.5-41.5c0-22.9,18.7-41.4,41.5-41.5
			c22.9,0,41.4,18.7,41.5,41.5h12.7c0-30-24.2-54.2-54.2-54.2s-54.2,24.2-54.2,54.2s24.2,54.2,54.2,54.2s54.2-24.2,54.2-54.2H291.7"
			/>
		<path class="st14" d="M261.4,623.2c-0.6,0-1.1,0-1.6-0.1c-1.1-0.1-2.1-0.4-3.2-0.8c-1.1-0.4-2-0.9-2.9-1.4
			c-0.9-0.6-1.7-1.3-2.5-2.1c-2.3-2.5-3.6-5.7-3.6-9.5c0-7.7,6.2-14,14-14c7.7,0,14,6.2,14,14c0,1.2-0.2,2.5-0.5,3.7
			c-0.3,1.1-0.7,2.1-1.2,3C271.3,620.2,266.7,623.2,261.4,623.2"/>
		<path class="st14" d="M260.9,614.6l-19.4-19.1l0.6-2.2l20.4,20.1C261.9,613.6,261.4,614.1,260.9,614.6"/>
		<path class="st14" d="M271.9,630.2L259.3,606l1.2-1.9l13.2,25.4C273.1,629.6,272.5,629.9,271.9,630.2"/>
		<path class="st14" d="M260.5,614.3l-6.2-26.5l1.6-1.6l6.5,27.9C261.8,614,261.1,614.1,260.5,614.3"/>
		<path class="st14" d="M253.5,615.9l-22,16.1l-2.1-0.9l23.1-16.8C252.8,614.9,253.2,615.4,253.5,615.9"/>
	</g>
	<g>
		<path class="st15" d="M87.3,407.4l-3.1-3.1c0.3-0.3,0.7-0.6,1-1l2.5,2.5L87.3,407.4"/>
		<path class="st15" d="M101.3,421.3l-12.8-12.7l0.4-1.6l13.7,13.4C102,420.7,101.6,421,101.3,421.3"/>
		<path class="st15" d="M100.1,423.3l-9.5-3.8c0.1-0.4,0.4-0.9,0.4-1.3l9.6,3.8C100.6,422.4,100.3,422.9,100.1,423.3"/>
		<path class="st15" d="M87.8,411.7c-0.4-0.1-0.9-0.3-1.3-0.3l1-3.8l0.4-1.6l0.9-3.2l0.3-1.3l2.8-11.2c0.4,0.1,0.9,0.3,1.3,0.3
			l-2.8,11.2l-0.3,1.3l-1,3.9l-0.4,1.6L87.8,411.7"/>
		<path class="st15" d="M93.4,389.2c-2.3,0-4.4-1.9-4.4-4.4c0-2.3,1.9-4.4,4.4-4.4c2.3,0,4.4,1.9,4.4,4.4S95.9,389.2,93.4,389.2"/>
		<path class="st15" d="M93.4,380.6c-2.3,0-4.4,1.9-4.4,4.4c0,2.3,1.9,4.4,4.4,4.4c2.3,0,4.4-1.9,4.4-4.4
			C97.8,382.5,95.9,380.6,93.4,380.6"/>
		<path class="st15" d="M93.4,390.5c-0.3,0-0.4,0-0.7,0c-0.4,0-0.9-0.1-1.3-0.3c-0.4-0.1-0.9-0.4-1.2-0.6c-0.4-0.3-0.7-0.6-1-0.9
			c-1-1-1.6-2.3-1.6-3.8c0-3.1,2.5-5.5,5.5-5.5c3.1,0,5.5,2.5,5.5,5.5c0,0.6,0,1-0.1,1.6c-0.1,0.4-0.3,0.9-0.6,1.3
			C97.5,389.4,95.6,390.5,93.4,390.5"/>
		<path class="st15" d="M80.6,404.4c-2.3,0-4.4-1.9-4.4-4.4c0-2.3,1.9-4.4,4.4-4.4c2.3,0,4.4,1.9,4.4,4.4
			C85,402.5,83.1,404.4,80.6,404.4"/>
		<path class="st15" d="M80.6,395.5c-2.3,0-4.4,1.9-4.4,4.4c0,2.3,1.9,4.4,4.4,4.4c2.3,0,4.4-1.9,4.4-4.4
			C85,397.4,83.1,395.5,80.6,395.5 M80.6,405.5c-3.1,0-5.5-2.5-5.5-5.4v-0.3c0-3.1,2.5-5.4,5.5-5.4c1.2,0,2.2,0.4,3.1,1
			c0.4,0.3,0.7,0.6,1,0.9c1,1,1.6,2.3,1.6,3.8c0,0.3,0,0.6,0,0.9c0,0.4-0.1,0.9-0.4,1.3c-0.1,0.4-0.4,1-0.9,1.5
			c-0.3,0.4-0.6,0.7-1,1C83.2,405.1,81.9,405.5,80.6,405.5 M85.7,421.1c-2.3,0-4.4-1.9-4.4-4.4c0-2.3,1.9-4.4,4.4-4.4
			c2.3,0,4.4,1.9,4.4,4.4C90.1,419.2,88,421.1,85.7,421.1"/>
		<path class="st15" d="M85.7,412.4c-2.3,0-4.4,1.9-4.4,4.4c0,2.3,1.9,4.4,4.4,4.4c2.3,0,4.4-1.9,4.4-4.4
			C89.9,414.4,88,412.5,85.7,412.4 M85.7,422.4c-3.1,0-5.5-2.5-5.5-5.5s2.5-5.5,5.5-5.5c0.3,0,0.6,0,0.7,0c0.4,0,0.9,0.1,1.3,0.3
			c2,0.9,3.6,2.8,3.6,5.2c0,0.6,0,1-0.1,1.5c-0.1,0.4-0.3,0.9-0.4,1.3C89.8,421.3,87.9,422.4,85.7,422.4 M105.7,429.3
			c-2.3,0-4.4-1.9-4.4-4.4c0-2.5,1.9-4.4,4.4-4.4c2.3,0,4.4,1.9,4.4,4.4C109.9,427.4,108,429.3,105.7,429.3"/>
		<path class="st15" d="M105.7,420.5c-2.3,0-4.4,1.9-4.4,4.4c0,2.5,1.9,4.4,4.4,4.4s4.4-1.9,4.4-4.4
			C109.9,422.4,108,420.7,105.7,420.5 M105.7,430.7c-3.1,0-5.5-2.5-5.5-5.5c0-0.6,0.1-1.2,0.3-1.6c0.1-0.4,0.3-0.9,0.6-1.3
			c0.1-0.3,0.4-0.6,0.6-0.9c0.3-0.3,0.6-0.7,1-0.9c0.3-0.1,0.6-0.4,0.9-0.4c0.4-0.1,0.9-0.3,1.3-0.4c0.4-0.1,0.9-0.1,1.3-0.1
			c0.6,0,1,0,1.5,0.1c0.4,0.1,0.9,0.3,1.3,0.4c1.7,1,2.9,2.8,2.9,5C111.3,428,108.7,430.7,105.7,430.7"/>
		<path class="st15" d="M127.2,406.1H123c0,15.3-12.2,27.7-27.7,27.7c-15.3,0-27.7-12.2-27.7-27.7s12.2-27.7,27.7-27.7
			c15.3,0,27.7,12.2,27.7,27.7h8.3c0-20-16.2-36-36-36c-20,0-36,16.2-36,36c0,20,16.2,36,36,36c20,0,36-16.2,36-36H127.2"/>
	</g>
	<g>
		<path class="st16" d="M337.9,596.7l2.9,2.9c-0.3,0.3-0.6,0.6-0.9,0.9l-2.4-2.3L337.9,596.7"/>
		<path class="st16" d="M325,583.9l12,11.9l-0.4,1.3L324,584.7C324.4,584.4,324.7,584.2,325,583.9"/>
		<path class="st16" d="M326,581.9l8.8,3.5c-0.2,0.4-0.4,0.8-0.5,1.1l-9-3.5C325.7,582.7,325.9,582.3,326,581.9"/>
		<path class="st16" d="M337.6,592.9c0.4,0.2,0.8,0.3,1.1,0.3l-0.9,3.4l-0.4,1.3l-0.7,2.9l-0.3,1.1l-2.5,10.4
			c-0.4-0.1-0.8-0.3-1.1-0.3l2.5-10.4l0.3-1.1l0.9-3.6l0.4-1.3L337.6,592.9"/>
		<path class="st16" d="M332.2,613.4c2.2,0,4,1.8,4,4s-1.8,4-4,4s-4-1.8-4-4S330,613.5,332.2,613.4"/>
		<path class="st16" d="M332.2,621.6c2.2,0,4-1.8,4-4s-1.8-4-4-4s-4,1.8-4,4C328.2,619.7,330,621.6,332.2,621.6"/>
		<path class="st16" d="M332.2,612.3c0.2,0,0.4,0,0.7,0c0.4,0.1,0.8,0.2,1.1,0.3c0.4,0.2,0.8,0.3,1.1,0.6c0.4,0.2,0.7,0.5,1,0.8
			c0.9,1,1.3,2.2,1.3,3.5c0,2.9-2.3,5.2-5.2,5.2s-5.2-2.3-5.2-5.2c0-0.5,0.1-1,0.2-1.4s0.3-0.8,0.5-1.1
			C328.6,613.3,330.3,612.3,332.2,612.3"/>
		<path class="st16" d="M327.7,592c3.7,0,6.7,3,6.7,6.7s-3,6.7-6.7,6.7s-6.7-3-6.7-6.7C320.9,595.1,324,592.1,327.7,592"/>
		<path class="st16" d="M319.7,614.8c2.2,0,4-1.8,4-4s-1.8-4-4-4s-4,1.8-4,4C315.8,613,317.5,614.8,319.7,614.8"/>
		<path class="st16" d="M343,598.4c2.3,0,4.1,1.8,4.1,4v0.2c-0.1,2.2-1.9,4-4.1,4c-0.9,0-1.6-0.3-2.3-0.7c-0.3-0.2-0.5-0.4-0.8-0.7
			c-0.7-0.8-1.1-1.7-1.1-2.8c0-0.2,0-0.4,0.1-0.7s0.1-0.7,0.3-1c0.1-0.4,0.3-0.7,0.6-1c0.2-0.3,0.4-0.5,0.7-0.7
			C341.2,598.7,342.1,598.4,343,598.4"/>
		<path class="st16" d="M339.5,584c2.2,0,4,1.8,4,4s-1.8,4-4,4s-4-1.8-4-4C335.5,585.9,337.2,584,339.5,584"/>
		<path class="st16" d="M339.5,592c2.2,0,4-1.8,4-4s-1.8-4-4-4s-4,1.8-4,4C335.5,590.3,337.2,592,339.5,592 M339.5,582.7
			c2.9,0,5.2,2.3,5.2,5.2s-2.3,5.2-5.2,5.2c-0.2,0-0.5,0-0.7,0c-0.4-0.1-0.8-0.2-1.1-0.3c-1.9-0.8-3.4-2.7-3.4-4.9
			c0-0.5,0.1-1,0.2-1.3c0.1-0.4,0.3-0.8,0.5-1.1C335.8,583.9,337.5,582.7,339.5,582.7 M320.9,576.5c2.2,0,4,1.8,4,4s-1.8,4-4,4
			s-4-1.8-4-4C316.9,578.2,318.7,576.5,320.9,576.5"/>
		<path class="st16" d="M320.9,584.4c2.2,0,4-1.8,4-4s-1.8-4-4-4s-4,1.8-4,4S318.7,584.4,320.9,584.4 M320.9,575.2
			c2.9,0,5.2,2.3,5.2,5.2c0,0.5-0.1,1.1-0.2,1.4c-0.1,0.4-0.3,0.8-0.5,1.1s-0.4,0.6-0.6,0.8c-0.3,0.3-0.6,0.6-0.9,0.9
			c-0.2,0.2-0.5,0.3-0.8,0.5c-0.4,0.2-0.8,0.3-1.1,0.4c-0.4,0.1-0.8,0.1-1.1,0.1c-0.5,0-1-0.1-1.3-0.2c-0.4-0.1-0.8-0.3-1.1-0.5
			c-1.6-0.9-2.8-2.6-2.8-4.6C315.8,577.6,318.1,575.2,320.9,575.2"/>
		<path class="st16" d="M300.9,597.9h3.8c0-14.2,11.5-25.5,25.6-25.6c14.2,0,25.5,11.5,25.6,25.6c0,14.2-11.5,25.5-25.6,25.6
			c-14.2,0-25.5-11.5-25.6-25.6H297c0,18.4,14.9,33.4,33.4,33.4s33.4-14.9,33.4-33.4s-14.9-33.4-33.4-33.4
			c-18.4,0-33.4,14.9-33.4,33.4H300.9"/>
		<path class="st16" d="M314.5,591.8c2.9,0,5.2,2.3,5.2,5.1v0.3c-0.1,2.8-2.4,5.1-5.2,5.1c-1.1,0-2.1-0.3-2.9-0.9
			c-0.4-0.2-0.7-0.5-1-0.8c-0.9-1-1.3-2.2-1.3-3.5c0-0.3,0-0.5,0.1-0.8c0.1-0.4,0.2-0.8,0.3-1.1c0.2-0.5,0.4-0.9,0.7-1.2
			c0.3-0.3,0.6-0.6,0.9-0.9C312.1,592.3,313.3,591.9,314.5,591.8"/>
		<path class="st16" d="M332.5,599.3l9.2,2.9c-0.2,0.4-0.3,0.8-0.4,1.1l-9.2-2.9C332.2,600,332.4,599.7,332.5,599.3"/>
		<path class="st16" d="M319.7,610.1l4.8-8.2c0.3,0.3,0.7,0.5,1.1,0.6l-4.8,8.2C320.5,610.5,320.1,610.3,319.7,610.1"/>
		<path class="st16" d="M315.6,596.9l9.6,1c-0.1,0.4-0.1,0.8-0.1,1.2l-9.6-1C315.6,597.6,315.6,597.3,315.6,596.9"/>
	</g>
	<g>
		<path class="st17" d="M555.9,552.8l-5-4.9c0.6-0.5,1.1-1,1.4-1.5l4.1,4L555.9,552.8"/>
		<path class="st17" d="M578.2,574.8l-20.6-20.3l0.6-2.4l21.6,21.2C579.2,573.8,578.6,574.3,578.2,574.8"/>
		<path class="st17" d="M576.4,578.2l-15.3-6c0.3-0.6,0.6-1.2,0.8-1.9l15.3,6C576.9,576.8,576.6,577.5,576.4,578.2"/>
		<path class="st17" d="M556.4,559.3c-0.7-0.3-1.3-0.4-2-0.5l1.4-6l0.6-2.4l1.2-5.1l0.5-2l4.3-17.9c0.7,0.2,1.3,0.4,2,0.5l-4.4,18
			l-0.5,2l-1.5,6.2l-0.6,2.4L556.4,559.3"/>
		<path class="st17" d="M563.3,529.4c-0.4,0-0.8,0-1.1-0.1c-0.7-0.1-1.4-0.3-2-0.5c-0.7-0.3-1.2-0.6-1.8-1s-1.1-0.9-1.6-1.3
			c-1.4-1.6-2.4-3.7-2.4-6.1c0-5,4-9.1,9.1-9.1s9.1,4,9.1,9.1c0,0.9-0.1,1.6-0.3,2.4c-0.2,0.7-0.5,1.3-0.8,1.9
			C569.7,527.5,566.8,529.4,563.3,529.4"/>
		<path class="st17" d="M547.3,536.5c-3.8,0-6.9,3.1-6.9,6.9c0,3.8,3.1,6.9,6.9,6.9c3.8,0,6.9-3.1,6.9-6.9S551.2,536.5,547.3,536.5"
			/>
		<path class="st17" d="M553.1,574.7c-3.8,0-6.9-3.1-6.9-6.9s3.1-6.9,6.9-6.9c3.8,0,6.9,3.1,6.9,6.9
			C560.1,571.5,557,574.7,553.1,574.7"/>
		<path class="st17" d="M553.1,560.8c-3.8,0-6.9,3.1-6.9,6.9s3.1,6.9,6.9,6.9c3.8,0,6.9-3.1,6.9-6.9
			C560.1,563.9,557,560.8,553.1,560.8 M553.1,576.8c-5,0-9.1-4-9.1-9.1s4-9.1,9.1-9.1c0.4,0,0.8,0,1.1,0.1c0.7,0.1,1.4,0.3,2,0.5
			c3.4,1.2,5.7,4.6,5.7,8.4c0,0.9-0.1,1.6-0.3,2.3s-0.5,1.3-0.8,1.9C559.6,574.9,556.6,576.8,553.1,576.8 M585.1,587.6
			c-3.8,0-6.9-3.1-6.9-6.9c0-3.8,3.1-6.9,6.9-6.9s6.9,3.1,6.9,6.9C591.9,584.5,588.8,587.5,585.1,587.6"/>
		<path class="st17" d="M585.1,573.8c-3.8,0-6.9,3.1-6.9,6.9c0,3.8,3.1,6.9,6.9,6.9s6.9-3.1,6.9-6.9
			C591.9,576.9,588.8,573.8,585.1,573.8 M585.1,589.7c-5,0-9.1-4-9.1-9.1c0-0.9,0.1-1.7,0.4-2.6c0.2-0.7,0.5-1.3,0.9-1.9
			c0.3-0.5,0.6-1,1-1.3c0.5-0.6,1-1.1,1.5-1.4c0.4-0.3,0.9-0.6,1.2-0.8c0.6-0.3,1.2-0.6,2-0.7c0.7-0.2,1.3-0.2,2-0.2
			c0.8,0,1.5,0.1,2.3,0.3c0.7,0.2,1.3,0.5,1.9,0.8c2.8,1.5,4.7,4.5,4.7,7.9C594.1,585.6,589.9,589.7,585.1,589.7"/>
		<path class="st17" d="M619.4,550.5h-6.7c0,24.3-19.8,43.9-44,44c-24.3,0-43.9-19.6-44-44c0-24.3,19.8-43.9,44-44
			c24.3,0,43.9,19.8,44,44h13.4c0-31.7-25.7-57.5-57.5-57.5c-31.9,0-57.5,25.7-57.5,57.5c0,31.9,25.7,57.5,57.5,57.5
			c31.7,0,57.5-25.7,57.5-57.5H619.4"/>
		<path class="st17" d="M573.8,559.3c-0.5,0-1,0-1.4-0.1c-0.9-0.1-1.8-0.3-2.6-0.7c-0.9-0.3-1.6-0.8-2.4-1.2c-0.8-0.5-1.4-1.1-2-1.7
			c-1.9-2.1-3.1-4.8-3.1-7.8c0-6.3,5.2-11.6,11.6-11.6c6.4,0,11.6,5.2,11.6,11.6c0,1.1-0.1,2.1-0.4,3.1c-0.2,0.9-0.6,1.7-1.1,2.5
			C581.9,556.9,578.1,559.3,573.8,559.3"/>
		<path class="st17" d="M595.7,568.3c-0.4,0-0.8,0-1.1-0.1c-0.7-0.1-1.4-0.3-2-0.5c-0.7-0.3-1.2-0.6-1.8-1s-1.1-0.9-1.6-1.3
			c-1.4-1.6-2.4-3.7-2.4-6.1c0-5,4-9.1,9.1-9.1s9.1,4,9.1,9.1c0,0.9-0.1,1.6-0.3,2.4c-0.2,0.7-0.5,1.3-0.8,1.9
			C602,566.5,599,568.3,595.7,568.3"/>
		<path class="st17" d="M588.6,537.3c-0.4,0-0.8,0-1.1-0.1c-0.7-0.1-1.4-0.3-2-0.5c-0.7-0.3-1.2-0.6-1.8-1s-1.1-0.9-1.6-1.3
			c-1.4-1.6-2.4-3.7-2.4-6.1c0-5,4-9.1,9.1-9.1c5,0,9.1,4,9.1,9.1c0,0.9-0.1,1.6-0.3,2.4c-0.2,0.7-0.5,1.3-0.8,1.9
			C595,535.4,592,537.3,588.6,537.3"/>
		<path class="st17" d="M596.3,563c-0.7,0-1.3,0.2-2.1,0.4l-1.1-6l-0.5-2.4l-1-5.1l-0.4-2.1l-3.5-18.1c0.7-0.1,1.4-0.2,2.1-0.4
			l3.5,18.2l0.4,2.1l1.2,6.2l0.5,2.4L596.3,563"/>
		<path class="st17" d="M571.5,551.3c-0.5-0.5-1.1-1-1.6-1.3l3.8-4.8l1.5-1.9l3.3-4l1.3-1.6l11.6-14.4c0.5,0.5,1.1,1,1.6,1.3
			L581.3,539l-1.3,1.6l-4,5l-1.5,1.9L571.5,551.3"/>
		<path class="st17" d="M553.8,567.6c-0.4-0.6-0.9-1.1-1.4-1.5l4.5-4.2l1.7-1.7l3.7-3.5l1.5-1.4l13.4-12.7c0.4,0.6,0.9,1.1,1.4,1.5
			l-13.5,12.7l-1.5,1.4l-4.6,4.4l-1.7,1.7L553.8,567.6"/>
	</g>
	<g>
		<path class="st18" d="M268.7,530.4l-3.2-3.2c0.4-0.3,0.7-0.6,1-1l2.6,2.6L268.7,530.4"/>
		<path class="st18" d="M283.1,544.6l-13.2-13l0.4-1.5l14,13.8C283.8,544,283.4,544.3,283.1,544.6"/>
		<path class="st18" d="M281.9,546.8l-9.9-3.9c0.2-0.4,0.4-0.9,0.5-1.2l10,3.9C282.2,545.9,282,546.3,281.9,546.8"/>
		<path class="st18" d="M269.1,534.7c-0.4-0.2-0.9-0.3-1.3-0.4l1-3.8l0.4-1.5l0.8-3.3l0.3-1.3l2.8-11.6c0.4,0.2,0.9,0.3,1.3,0.3
			l-2.8,11.6l-0.3,1.3l-1,4l-0.4,1.5L269.1,534.7"/>
		<path class="st18" d="M275,511.7c-2.5,0-4.4-2-4.4-4.4c0-2.5,2-4.4,4.4-4.4c2.5,0,4.4,2,4.4,4.4S277.5,511.7,275,511.7"/>
		<path class="st18" d="M275,502.8c-2.5,0-4.4,2-4.4,4.4c0,2.5,2,4.4,4.4,4.4c2.5,0,4.4-2,4.4-4.4
			C279.4,504.9,277.4,502.8,275,502.8"/>
		<path class="st18" d="M275,513.1c-0.2,0-0.5,0-0.7,0c-0.5-0.1-0.9-0.2-1.3-0.3c-0.5-0.2-0.9-0.4-1.2-0.6c-0.4-0.3-0.8-0.6-1.1-0.9
			c-1-1.1-1.5-2.4-1.5-3.9c0-3.2,2.6-5.8,5.8-5.8c3.2,0,5.8,2.6,5.8,5.8c0,0.6-0.1,1.1-0.2,1.5c-0.1,0.5-0.3,0.9-0.5,1.2
			C279.1,511.8,277.2,513.1,275,513.1"/>
		<path class="st18" d="M261.8,527.2c-2.5,0-4.4-2-4.4-4.4c0-2.5,2-4.4,4.4-4.4c2.5,0,4.4,2,4.4,4.4S264.3,527.2,261.8,527.2"/>
		<path class="st18" d="M261.8,518.3c-2.5,0-4.4,2-4.4,4.4c0,2.5,2,4.4,4.4,4.4s4.4-2,4.4-4.4S264.2,518.3,261.8,518.3 M261.8,528.5
			c-3.2,0-5.7-2.5-5.8-5.6v-0.3c0.1-3.2,2.7-5.6,5.8-5.6c1.1,0,2.3,0.4,3.3,1c0.4,0.3,0.8,0.6,1.1,0.9c1,1.1,1.5,2.4,1.5,3.9
			c0,0.3,0,0.6-0.1,0.9c-0.1,0.5-0.2,0.9-0.4,1.3c-0.2,0.5-0.5,1-0.8,1.3c-0.3,0.4-0.6,0.7-1,1C264.4,528,263.2,528.5,261.8,528.5
			 M267,544.5c-2.5,0-4.4-2-4.4-4.4c0-2.5,2-4.4,4.4-4.4c2.5,0,4.4,2,4.4,4.4C271.5,542.6,269.5,544.5,267,544.5"/>
		<path class="st18" d="M267,535.7c-2.5,0-4.4,2-4.4,4.4c0,2.5,2,4.4,4.4,4.4s4.4-2,4.4-4.4C271.5,537.6,269.5,535.7,267,535.7
			 M267,545.8c-3.2,0-5.8-2.6-5.8-5.8s2.6-5.8,5.8-5.8c0.3,0,0.5,0,0.8,0c0.5,0.1,0.9,0.2,1.3,0.4c2.2,0.9,3.7,3,3.7,5.4
			c0,0.5-0.1,1.1-0.2,1.5c-0.1,0.5-0.3,0.9-0.5,1.2C271.1,544.7,269.2,545.8,267,545.8 M287.6,552.9c-2.5,0-4.4-2-4.4-4.4
			c0-2.5,2-4.4,4.4-4.4c2.5,0,4.4,2,4.4,4.4S290,552.9,287.6,552.9"/>
		<path class="st18" d="M287.6,543.9c-2.5,0-4.4,2-4.4,4.4c0,2.5,2,4.4,4.4,4.4c2.5,0,4.4-2,4.4-4.4S290,544,287.6,543.9
			 M287.6,554.2c-3.2,0-5.8-2.6-5.8-5.8c0-0.6,0.1-1.1,0.2-1.6s0.3-0.9,0.6-1.2c0.2-0.3,0.4-0.6,0.7-0.9c0.3-0.4,0.7-0.7,1-1
			c0.3-0.2,0.6-0.4,0.9-0.5c0.4-0.2,0.9-0.4,1.2-0.5s0.9-0.2,1.3-0.2s1.1,0.1,1.5,0.2c0.5,0.1,0.9,0.3,1.2,0.5
			c1.8,1,3.1,2.9,3.1,5.1C293.3,551.7,290.7,554.2,287.6,554.2"/>
		<path class="st18" d="M309.7,529h-4.3c0,15.7-12.7,28.3-28.4,28.4c-15.7,0-28.3-12.7-28.4-28.4c0-15.7,12.7-28.3,28.4-28.4
			c15.7,0,28.3,12.7,28.4,28.4h8.6c0-20.4-16.6-37-37-37c-20.5,0-37,16.6-37,37c0,20.5,16.6,37,37,37s37-16.6,37-37H309.7"/>
		<path class="st18" d="M290,529.6c-0.2,0-0.5,0-0.7,0c-0.5-0.1-0.9-0.2-1.3-0.3c-0.5-0.2-0.9-0.4-1.2-0.6c-0.4-0.3-0.8-0.6-1.1-0.9
			c-1-1.1-1.5-2.4-1.5-3.9c0-3.2,2.6-5.8,5.8-5.8c3.2,0,5.8,2.6,5.8,5.8c0,0.6-0.1,1.1-0.2,1.5c-0.1,0.5-0.3,0.9-0.5,1.2
			C294.1,528.4,292.2,529.6,290,529.6"/>
		<path class="st18" d="M290.3,524L277,510.9l0.4-1.5l14,13.7C290.9,523.3,290.6,523.6,290.3,524"/>
	</g>
	<g>
		<path class="st19" d="M513.5,466.8l-3.1-3c0.3-0.3,0.7-0.6,0.9-1l2.5,2.4L513.5,466.8"/>
		<path class="st19" d="M527.2,480.3l-12.6-12.4l0.4-1.4l13.2,13C527.8,479.6,527.5,479.9,527.2,480.3"/>
		<path class="st19" d="M526.1,482.3l-9.4-3.7c0.2-0.4,0.4-0.8,0.5-1.1l9.4,3.7C526.4,481.4,526.2,481.8,526.1,482.3"/>
		<path class="st19" d="M513.9,470.9c-0.4-0.2-0.8-0.3-1.2-0.3l0.9-3.6l0.4-1.4l0.8-3.1l0.3-1.2l2.7-10.9c0.4,0.1,0.9,0.3,1.2,0.3
			l-2.7,11l-0.3,1.2l-1,3.7l-0.4,1.3L513.9,470.9"/>
		<path class="st19" d="M519.4,449.2c-2.3,0-4.2-1.9-4.2-4.2c0-2.3,1.9-4.2,4.2-4.2s4.2,1.9,4.2,4.2
			C523.8,447.3,521.9,449.2,519.4,449.2"/>
		<path class="st19" d="M519.4,440.8c-2.3,0-4.2,1.9-4.2,4.2c0,2.3,1.9,4.2,4.2,4.2s4.2-1.9,4.2-4.2
			C523.8,442.7,521.8,440.8,519.4,440.8"/>
		<path class="st19" d="M519.4,450.4c-0.2,0-0.5,0-0.7,0c-0.4-0.1-0.9-0.2-1.2-0.3c-0.4-0.2-0.8-0.4-1.1-0.6c-0.4-0.3-0.7-0.5-1-0.9
			c-0.9-1-1.4-2.3-1.4-3.7c0-3.1,2.5-5.5,5.5-5.5s5.5,2.5,5.5,5.5c0,0.5-0.1,1-0.2,1.4s-0.3,0.9-0.5,1.1
			C523.5,449.4,521.6,450.4,519.4,450.4"/>
		<path class="st19" d="M507.1,463.7c-2.3,0-4.2-1.9-4.2-4.2s1.9-4.2,4.2-4.2s4.2,1.9,4.2,4.2C511.3,461.9,509.4,463.7,507.1,463.7"
			/>
		<path class="st19" d="M507.1,455.4c-2.3,0-4.2,1.9-4.2,4.2c0,2.3,1.9,4.2,4.2,4.2s4.2-1.9,4.2-4.2S509.4,455.4,507.1,455.4
			 M507.1,465.1c-3,0-5.4-2.4-5.5-5.4v-0.3c0.1-3,2.5-5.4,5.5-5.4c1.1,0,2.2,0.4,3.1,1c0.4,0.3,0.7,0.5,1,0.9c0.9,1,1.4,2.3,1.4,3.7
			c0,0.3,0,0.6-0.1,0.9c-0.1,0.4-0.2,0.9-0.4,1.2c-0.2,0.5-0.5,0.9-0.8,1.3s-0.6,0.7-0.9,1C509.6,464.6,508.3,465.1,507.1,465.1
			 M511.9,480.2c-2.3,0-4.2-1.9-4.2-4.2s1.9-4.2,4.2-4.2c2.3,0,4.2,1.9,4.2,4.2C516.1,478.3,514.3,480.2,511.9,480.2"/>
		<path class="st19" d="M511.9,471.8c-2.3,0-4.2,1.9-4.2,4.2s1.9,4.2,4.2,4.2c2.3,0,4.2-1.9,4.2-4.2
			C516.1,473.7,514.3,471.8,511.9,471.8 M511.9,481.4c-3.1,0-5.5-2.5-5.5-5.5c0-3.1,2.5-5.5,5.5-5.5c0.3,0,0.5,0,0.7,0
			c0.4,0.1,0.9,0.2,1.2,0.3c2,0.8,3.5,2.8,3.5,5.1c0,0.5-0.1,1-0.2,1.4s-0.3,0.9-0.5,1.1C515.8,480.3,514,481.4,511.9,481.4
			 M531.3,488.1c-2.3,0-4.2-1.9-4.2-4.2c0-2.3,1.9-4.2,4.2-4.2s4.2,1.9,4.2,4.2C535.5,486.1,533.6,488.1,531.3,488.1"/>
		<path class="st19" d="M531.3,479.6c-2.3,0-4.2,1.9-4.2,4.2s1.9,4.2,4.2,4.2s4.2-1.9,4.2-4.2S533.6,479.6,531.3,479.6 M531.3,489.4
			c-3.1,0-5.5-2.5-5.5-5.5c0-0.6,0.1-1.1,0.2-1.5c0.1-0.4,0.3-0.8,0.5-1.1c0.2-0.3,0.4-0.6,0.6-0.9c0.3-0.3,0.6-0.6,1-0.9
			c0.3-0.2,0.5-0.4,0.8-0.5c0.4-0.2,0.8-0.3,1.2-0.4s0.8-0.1,1.2-0.1c0.5,0,1,0.1,1.4,0.2s0.9,0.3,1.1,0.5c1.7,1,2.9,2.8,2.9,4.8
			C536.8,486.8,534.4,489.4,531.3,489.4"/>
		<path class="st19" d="M552.3,465.4h-4c0,14.8-12.1,26.8-26.9,26.9c-14.8,0-26.8-12-26.9-26.9c0-14.8,12.1-26.8,26.9-26.9
			c14.8,0,26.8,12.1,26.9,26.9h8.1c0-19.3-15.6-35-35-35c-19.3,0-35,15.6-35,35c0,19.3,15.6,35,35,35c19.3,0,35-15.6,35-35H552.3"/>
		<path class="st19" d="M541.1,477.2c-0.2,0-0.5,0-0.7,0c-0.4-0.1-0.9-0.2-1.2-0.3c-0.4-0.2-0.8-0.4-1.1-0.6c-0.4-0.2-0.7-0.5-1-0.9
			c-0.9-1-1.4-2.3-1.4-3.7c0-3.1,2.5-5.5,5.5-5.5s5.5,2.5,5.5,5.5c0,0.5-0.1,1-0.2,1.4c-0.1,0.4-0.3,0.9-0.5,1.1
			C544.9,476.1,543.2,477.2,541.1,477.2"/>
		<path class="st19" d="M523.8,470.6c-0.2,0-0.5,0-0.7,0c-0.4-0.1-0.9-0.2-1.2-0.3c-0.4-0.2-0.8-0.4-1.1-0.6c-0.4-0.2-0.7-0.5-1-0.9
			c-0.9-1-1.4-2.3-1.4-3.7c0-3.1,2.5-5.5,5.5-5.5c3.1,0,5.5,2.5,5.5,5.5c0,0.5-0.1,1-0.2,1.4s-0.3,0.9-0.5,1.1
			C527.6,469.4,525.9,470.6,523.8,470.6"/>
		<path class="st19" d="M536.6,468.7l-14.9-18.8l0.4-2.2l15.7,19.6C537.3,467.8,537,468.2,536.6,468.7"/>
		<path class="st19" d="M523,466.1l-3.6-17.2l1.1-1.1l3.8,18.1C523.8,465.9,523.4,466,523,466.1"/>
	</g>
	<g>
		<path class="st20" d="M397.7,617.2l-2.5-2.4c0.3-0.2,0.5-0.5,0.8-0.8l2,2L397.7,617.2"/>
		<path class="st20" d="M408.7,628.1L398.5,618l0.3-1.1l10.7,10.5C409.2,627.7,408.9,627.9,408.7,628.1"/>
		<path class="st20" d="M407.8,629.8l-7.5-3c0.2-0.3,0.3-0.7,0.4-1l7.6,3C408,629.1,407.9,629.5,407.8,629.8"/>
		<path class="st20" d="M398,620.6c-0.3-0.1-0.7-0.2-1-0.3l0.8-3l0.3-1.1l0.6-2.5l0.3-1.1l2.1-8.8c0.3,0.1,0.7,0.2,1.1,0.3l-2.1,8.8
			l-0.3,1.1l-0.8,3.1l-0.3,1.1L398,620.6"/>
		<path class="st20" d="M402,606.9c-0.2,0-0.4,0-0.6,0c-0.4-0.1-0.8-0.1-1.1-0.3c-0.4-0.1-0.8-0.3-1.1-0.6c-0.3-0.2-0.7-0.5-0.9-0.8
			c-0.9-0.9-1.3-2.1-1.3-3.4c0-2.8,2.3-5.1,5.1-5.1c2.8,0,5.1,2.3,5.1,5.1c0,0.5-0.1,1-0.2,1.3c-0.1,0.4-0.3,0.8-0.5,1.1
			C405.5,605.8,403.9,606.9,402,606.9"/>
		<path class="st20" d="M392.5,614.7c-1.9,0-3.4-1.5-3.4-3.4s1.5-3.4,3.4-3.4s3.4,1.5,3.4,3.4S394.3,614.7,392.5,614.7"/>
		<path class="st20" d="M392.4,608c-1.9,0-3.4,1.5-3.4,3.4s1.5,3.4,3.4,3.4s3.4-1.5,3.4-3.4C395.9,609.5,394.3,608,392.4,608"/>
		<path class="st20" d="M392.4,615.8c-2.4,0-4.4-1.9-4.4-4.3v-0.2c0.1-2.4,2-4.3,4.4-4.3c1,0,1.7,0.3,2.5,0.8
			c0.3,0.2,0.6,0.4,0.8,0.7c0.8,0.8,1.1,1.8,1.1,3c0,0.2,0,0.5-0.1,0.7c-0.1,0.4-0.1,0.7-0.3,1c-0.2,0.4-0.4,0.8-0.6,1.1
			s-0.5,0.5-0.8,0.8C394.4,615.4,393.5,615.8,392.4,615.8"/>
		<path class="st20" d="M396.6,619.1c-3.1,0-5.6,2.5-5.6,5.6s2.5,5.6,5.6,5.6s5.6-2.5,5.6-5.6C402.2,621.5,399.7,619.1,396.6,619.1"
			/>
		<path class="st20" d="M412.2,634.5c-1.9,0-3.4-1.5-3.4-3.4s1.5-3.4,3.4-3.4s3.4,1.5,3.4,3.4C415.6,632.9,414.1,634.5,412.2,634.5"
			/>
		<path class="st20" d="M412.2,627.7c-1.9,0-3.4,1.5-3.4,3.4s1.5,3.4,3.4,3.4s3.4-1.5,3.4-3.4S414.1,627.7,412.2,627.7 M412.2,635.6
			c-2.5,0-4.4-2-4.4-4.4c0-0.5,0.1-0.9,0.2-1.2c0.1-0.4,0.3-0.7,0.4-1s0.3-0.5,0.5-0.7c0.2-0.3,0.5-0.5,0.8-0.7
			c0.2-0.1,0.4-0.3,0.7-0.4c0.3-0.2,0.7-0.3,1-0.4c0.3-0.1,0.7-0.1,1-0.1c0.4,0,0.8,0.1,1.1,0.2c0.4,0.1,0.7,0.2,1,0.4
			c1.3,0.8,2.3,2.2,2.3,3.9C416.6,633.5,414.6,635.6,412.2,635.6"/>
		<path class="st20" d="M429.2,616.2h-3.3c0,12.1-9.9,21.7-21.7,21.7c-12.1,0-21.7-9.8-21.7-21.7c0-12.1,9.9-21.7,21.7-21.7
			c12.1,0,21.7,9.9,21.7,21.7h6.6c0-15.7-12.7-28.4-28.4-28.4c-15.7,0-28.4,12.7-28.4,28.4s12.7,28.4,28.4,28.4
			c15.7,0,28.4-12.7,28.4-28.4H429.2"/>
		<path class="st20" d="M414.7,608.3c-3.5,0-6.4,2.9-6.4,6.4s2.9,6.4,6.4,6.4s6.4-2.9,6.4-6.4C421.2,611.2,418.4,608.3,414.7,608.3"
			/>
		<path class="st20" d="M413.2,629.3c-0.3-0.1-0.7-0.1-1.1-0.1l0.4-3.1l0.2-1.1l0.3-2.6l0.1-1.1l1.1-9.1c0.3,0.1,0.7,0.1,1.1,0.1
			l-1.1,9.1l-0.1,1.1l-0.4,3.2l-0.2,1.1L413.2,629.3"/>
	</g>
	<g>
		<path class="st12" d="M489.2,574.4l-5.5-2.2c0.1-0.2,0.2-0.5,0.3-0.7l5.5,2.2C489.4,573.9,489.2,574.1,489.2,574.4"/>
		<path class="st12" d="M481.9,567.6c-0.2-0.1-0.5-0.2-0.8-0.2l0.5-2.1l0.2-0.9l0.5-1.8l0.2-0.8l1.5-6.4c0.2,0.1,0.5,0.2,0.8,0.2
			l-1.5,6.4l-0.2,0.8l-0.6,2.2l-0.2,0.9L481.9,567.6"/>
		<path class="st12" d="M485.4,555c-1.3,0-2.5-1.1-2.5-2.5c0-1.3,1.1-2.5,2.5-2.5c1.3,0,2.5,1.1,2.5,2.5
			C487.8,553.8,486.7,555,485.4,555"/>
		<path class="st12" d="M485.4,550c-1.3,0-2.5,1.1-2.5,2.5c0,1.3,1.1,2.5,2.5,2.5c1.3,0,2.5-1.1,2.5-2.5
			C487.8,551.2,486.7,550,485.4,550"/>
		<path class="st12" d="M485.4,555.8c-0.1,0-0.3,0-0.4,0c-0.3,0-0.5-0.1-0.8-0.2c-0.2-0.1-0.5-0.2-0.7-0.4c-0.2-0.1-0.4-0.3-0.6-0.5
			c-0.6-0.6-0.9-1.3-0.9-2.2c0-1.8,1.4-3.3,3.3-3.3s3.3,1.4,3.3,3.3c0,0.3,0,0.6-0.1,0.9c-0.1,0.3-0.2,0.5-0.3,0.7
			C487.6,555.1,486.5,555.8,485.4,555.8"/>
		<path class="st12" d="M480.8,573.2c-1.3,0-2.5-1.1-2.5-2.5s1.1-2.5,2.5-2.5s2.5,1.1,2.5,2.5C483.4,572,482.2,573.2,480.8,573.2"/>
		<path class="st12" d="M480.8,568.2c-1.3,0-2.5,1.1-2.5,2.5c0,1.3,1.1,2.5,2.5,2.5s2.5-1.1,2.5-2.5
			C483.4,569.3,482.2,568.2,480.8,568.2 M480.8,573.9c-1.8,0-3.3-1.4-3.3-3.3c0-1.8,1.4-3.3,3.3-3.3c0.1,0,0.3,0,0.4,0
			c0.3,0,0.5,0.1,0.8,0.2c1.2,0.5,2.1,1.6,2.1,3c0,0.3,0,0.6-0.1,0.9c-0.1,0.3-0.2,0.5-0.3,0.7C483.1,573.3,482,573.9,480.8,573.9
			 M492.3,577.8c-1.3,0-2.5-1.1-2.5-2.5c0-1.3,1.1-2.5,2.5-2.5c1.3,0,2.5,1.1,2.5,2.5C494.7,576.6,493.6,577.8,492.3,577.8"/>
		<path class="st12" d="M492.3,572.9c-1.3,0-2.5,1.1-2.5,2.5c0,1.3,1.1,2.5,2.5,2.5c1.3,0,2.5-1.1,2.5-2.5
			C494.7,573.9,493.6,572.9,492.3,572.9 M492.3,578.5c-1.8,0-3.3-1.4-3.3-3.3c0-0.3,0-0.6,0.1-1c0.1-0.3,0.2-0.5,0.3-0.7
			c0.1-0.2,0.2-0.4,0.4-0.5c0.2-0.2,0.4-0.4,0.6-0.5c0.1-0.1,0.3-0.2,0.5-0.3s0.5-0.2,0.7-0.3s0.5-0.1,0.7-0.1c0.3,0,0.6,0,0.9,0.1
			s0.5,0.2,0.7,0.3c1,0.6,1.7,1.6,1.7,2.9C495.4,577.1,494,578.5,492.3,578.5"/>
		<path class="st12" d="M504.6,564.5h-2.4c0,8.6-7,15.7-15.8,15.8c-8.6,0-15.7-7-15.8-15.8c0-8.6,7-15.7,15.8-15.8
			c8.6,0,15.7,7,15.8,15.8h4.8c0-11.4-9.2-20.6-20.6-20.6s-20.6,9.2-20.6,20.6c0,11.4,9.2,20.6,20.6,20.6s20.6-9.2,20.6-20.6H504.6"
			/>
	</g>
	<g>
		<path class="st21" d="M183.9,494.6l-30.2,76.5l3.1,1.2l30.3-76.5"/>
		<path class="st21" d="M187.2,493.7l-62.5-25.5l-1.2,3.2l62.4,25.4"/>
		<path class="st21" d="M137.6,522.1l49.7-25.5l-1.5-3l-49.7,25.5"/>
		<path class="st21" d="M107.3,536.1l43.6,35l2.1-2.6l-43.6-35"/>
		<path class="st21" d="M125.8,467.8l10.9,51.3l-2.4,0.3l-10.9-51.3"/>
		<path class="st21" d="M149.6,520.7c0,7-5.6,12.8-12.7,12.8c-7,0-12.8-5.6-12.8-12.8c0-7.1,5.6-12.8,12.8-12.8
			S149.6,513.7,149.6,520.7"/>
		<path class="st21" d="M199.9,498.8c0,9.6-7.7,17.4-17.4,17.4c-9.6,0-17.4-7.7-17.4-17.4c0-9.8,7.7-17.4,17.4-17.4
			C192.2,481.4,199.9,489.3,199.9,498.8"/>
		<path class="st21" d="M136.9,469.3c0,7-5.6,12.8-12.8,12.8c-7,0-12.7-5.6-12.7-12.8c0-7.1,5.6-12.8,12.7-12.8
			C131.1,456.5,136.9,462.3,136.9,469.3"/>
		<path class="st21" d="M136.9,469.6h-1.7c0,6-4.9,11.1-11.1,11.1c-6,0-11.1-5-11.1-11.1c0-6,4.9-11.1,11.1-11.1
			c6,0,11.1,5,11.1,11.1h3.4c0-7.9-6.4-14.5-14.5-14.5s-14.5,6.4-14.5,14.5c0,7.9,6.4,14.5,14.5,14.5s14.5-6.4,14.5-14.5H136.9"/>
		<path class="st21" d="M116.7,530.7c0,5.8-4.7,10.7-10.7,10.7c-5.8,0-10.7-4.7-10.7-10.7c0-5.9,4.7-10.7,10.7-10.7
			S116.7,524.7,116.7,530.7"/>
		<path class="st21" d="M170.7,572.4c0,8.4-6.8,15.4-15.4,15.4c-8.4,0-15.4-6.8-15.4-15.4c0-8.4,6.8-15.4,15.4-15.4
			C163.8,556.9,170.7,563.9,170.7,572.4"/>
		<circle class="st22" cx="142.3" cy="518.7" r="76.6"/>
	</g>
	<g>
		<path class="st23" d="M238.3,445.1c-0.6-0.7-1-1.1-1.8-1.8l4.9-5.2l2-2.1l4.2-4.3l1.7-1.8l14.9-15.6c0.6,0.7,1,1.1,1.8,1.7
			l-15,15.5l-1.7,1.8l-5.1,5.4l-2,2.1L238.3,445.1"/>
		<path class="st23" d="M272.3,462.6c-5.8,0-10.5-4.7-10.5-10.5c0-0.7,0.1-1.1,0.2-1.8c0.2-0.9,0.4-1.6,0.8-2.4
			c1.6-3.8,5.4-6.4,9.7-6.4c3.6,0,6.8,1.8,8.8,4.7c0.5,0.7,0.9,1.3,1,2.2c0.4,1,0.7,2.5,0.7,3.7c0,4-2.4,7.6-5.7,9.4
			c-0.8,0.4-1.5,0.7-2.4,0.9C274,462.4,273.3,462.5,272.3,462.6"/>
		<path class="st23" d="M261.3,431.9c-0.4,0-0.9,0-1.2-0.1c-0.9-0.1-1.6-0.4-2.5-0.6c-0.9-0.4-1.5-0.7-2.2-1
			c-0.7-0.5-1.2-0.9-1.8-1.6c-1.8-1.9-2.7-4.3-2.7-7c0-5.7,4.7-10.4,10.4-10.4c5.8,0,10.4,4.7,10.4,10.4c0,0.9-0.2,1.9-0.4,2.7
			c-0.3,0.9-0.6,1.6-0.9,2.3C268.6,429.8,265.3,431.9,261.3,431.9"/>
		<path class="st23" d="M233.4,450.1c-2.8-1.7-3.9-5.4-2.2-8.4c1.7-2.8,5.4-3.9,8.4-2.2c0.3,0.2,0.5,0.4,0.7,0.4
			c0.4,0.3,0.8,0.7,1,1c1.5,1.9,1.8,4.7,0.5,6.8c-0.4,0.5-0.7,0.9-0.9,1.2c-0.4,0.4-0.8,0.7-1,0.9
			C237.9,451.3,235.5,451.4,233.4,450.1"/>
		<path class="st23" d="M268.8,445.6l-6.1-17.7c0.9-0.3,1.6-0.5,2.4-0.9l6.1,17.7C270.2,445,269.6,445.3,268.8,445.6"/>
		<circle class="st24" cx="262.8" cy="431.6" r="52"/>
		<path class="st23" d="M285.6,424.5l-18.6-0.9c0.1-0.9,0.2-1.7,0-2.6l18.6,0.8C285.6,422.8,285.6,423.7,285.6,424.5"/>
		<path class="st23" d="M303.7,426.5c-1.7,4.2-6.3,6.1-10.5,4.6c-4.2-1.7-6.1-6.3-4.6-10.5c1.7-4.2,6.3-6.1,10.5-4.5
			C303.3,417.7,305.3,422.5,303.7,426.5"/>
		<path class="st23" d="M288.7,420.6c-1.7,4.2,0.4,8.9,4.6,10.5c4.2,1.7,8.9-0.4,10.5-4.6c1.7-4.2-0.4-8.9-4.5-10.5
			C295.1,414.5,290.4,416.4,288.7,420.6 M305.9,427.5c-2.2,5.4-8.3,8.1-13.7,5.9c-0.9-0.4-1.8-0.9-2.6-1.4c-0.7-0.5-1.1-1-1.8-1.7
			c-0.4-0.5-0.9-1-1-1.6c-0.4-0.8-0.8-1.5-0.9-2.3c-0.2-0.6-0.3-1-0.3-1.8c0-0.9,0-1.7,0.1-2.6c0.1-0.9,0.4-1.5,0.7-2.3
			c0.4-0.9,0.9-1.7,1.2-2.5c0.5-0.7,1-1.2,1.7-1.8c2.8-2.5,6.9-3.2,10.7-1.7C305.5,415.8,308.1,422.1,305.9,427.5"/>
		<path class="st23" d="M253.6,405.7l9.2,16.3c-0.8,0.4-1.5,0.8-2.2,1.2l-9.3-16.3C252.2,406.6,253,406.2,253.6,405.7"/>
		<path class="st23" d="M247.5,391.8c4.4-0.9,8.5,2.1,9.5,6.5c0.9,4.4-2.1,8.5-6.5,9.5c-4.4,0.9-8.5-2.1-9.4-6.5
			C240.2,396.9,243.1,392.8,247.5,391.8"/>
	</g>
	<g>
		<path class="st25" d="M168,618.5l-1.4-1.4c0.2-0.1,0.3-0.3,0.5-0.4l1.2,1.1L168,618.5"/>
		<path class="st25" d="M174.6,624.8l-6-5.7l0.2-0.7l6.3,6C174.9,624.5,174.7,624.6,174.6,624.8"/>
		<path class="st25" d="M174.1,625.8l-4.5-1.7c0.1-0.2,0.2-0.4,0.2-0.6l4.5,1.7C174.2,625.4,174.1,625.6,174.1,625.8"/>
		<path class="st25" d="M168.2,620.3c-0.2-0.1-0.4-0.1-0.6-0.2l0.5-1.7l0.2-0.7l0.4-1.4l0.2-0.6l1.2-5.1c0.2,0.1,0.4,0.1,0.6,0.1
			l-1.2,5.1l-0.2,0.6l-0.5,1.7l-0.2,0.7L168.2,620.3"/>
		<path class="st25" d="M170.8,610.3c-1.1,0-2-0.9-2-2s0.9-1.9,2-2c1.1,0,2,0.9,2,2C173,609.4,172,610.3,170.8,610.3"/>
		<path class="st25" d="M170.8,606.4c-1.1,0-2,0.9-2,2s0.9,1.9,2,2c1.1,0,2-0.9,2-2C173,607.2,172,606.4,170.8,606.4"/>
		<path class="st25" d="M170.8,610.9c-0.1,0-0.2,0-0.3,0c-0.2,0-0.4-0.1-0.6-0.1c-0.2-0.1-0.4-0.2-0.6-0.3s-0.3-0.3-0.5-0.4
			c-0.5-0.5-0.7-1.1-0.7-1.7c0-1.4,1.1-2.6,2.7-2.6c1.4,0,2.7,1.1,2.7,2.6c0,0.2,0,0.5-0.1,0.7s-0.1,0.4-0.2,0.6
			C172.8,610.4,171.9,610.9,170.8,610.9"/>
		<path class="st25" d="M164.9,617.1c-1.1,0-2-0.9-2-2s1-1.9,2-2c1.1,0,2,0.9,2,2S166,617.1,164.9,617.1"/>
		<path class="st25" d="M164.9,613.2c-1.1,0-2,0.9-2,2s1,1.9,2,1.9c1.1,0,2-0.9,2-1.9C166.9,614,166,613.2,164.9,613.2 M164.9,617.7
			c-1.4,0-2.6-1.1-2.7-2.5v-0.1c0-1.3,1.2-2.5,2.7-2.5c0.6,0,1.1,0.2,1.4,0.5c0.2,0.1,0.3,0.3,0.5,0.4c0.5,0.5,0.7,1.1,0.7,1.7
			c0,0.1,0,0.3,0,0.4c0,0.2-0.1,0.4-0.2,0.6c-0.1,0.2-0.2,0.4-0.4,0.6c-0.1,0.2-0.3,0.3-0.5,0.4
			C166.1,617.5,165.5,617.7,164.9,617.7 M167.2,624.8c-1.1,0-2-0.9-2-2s1-1.9,2-2c1.1,0,2,0.9,2,2
			C169.2,623.9,168.4,624.8,167.2,624.8"/>
		<path class="st25" d="M167.2,620.9c-1.1,0-2,0.9-2,2s1,1.9,2,1.9c1.1,0,2-0.9,2-1.9C169.2,621.8,168.4,620.9,167.2,620.9
			 M167.2,625.4c-1.4,0-2.7-1.1-2.7-2.6s1.1-2.6,2.7-2.6c0.1,0,0.2,0,0.4,0s0.4,0.1,0.6,0.2c1,0.4,1.7,1.3,1.7,2.4
			c0,0.2,0,0.5-0.1,0.7s-0.1,0.4-0.2,0.6C169.1,624.8,168.3,625.4,167.2,625.4 M176.6,628.5c-1.1,0-2-0.9-2-2s1-1.9,2-2
			c1.1,0,2,0.9,2,2S177.7,628.5,176.6,628.5"/>
		<path class="st25" d="M176.6,624.5c-1.1,0-2,0.9-2,2s1,1.9,2,1.9s2-0.9,2-1.9S177.7,624.5,176.6,624.5 M176.6,629
			c-1.4,0-2.7-1.1-2.7-2.6c0-0.3,0-0.5,0.1-0.8c0.1-0.2,0.2-0.4,0.3-0.6c0.1-0.1,0.2-0.3,0.3-0.4c0.1-0.2,0.3-0.3,0.5-0.4
			c0.1-0.1,0.3-0.2,0.4-0.2c0.2-0.1,0.4-0.2,0.6-0.2c0.2,0,0.4-0.1,0.6-0.1c0.2,0,0.5,0,0.7,0.1s0.4,0.1,0.6,0.2
			c0.9,0.5,1.4,1.2,1.4,2.3C179.4,627.9,178,629,176.6,629"/>
		<path class="st25" d="M186.8,617.8h-2c0,6.9-5.8,12.5-13,12.6c-7.2,0-13-5.6-13-12.6c0-6.9,5.8-12.5,13-12.6c7.2,0,13,5.6,13,12.6
			h3.9c0-9.1-7.6-16.4-16.9-16.4c-9.5,0-16.9,7.3-16.9,16.4s7.6,16.4,16.9,16.4s16.9-7.3,16.9-16.4H186.8"/>
		<path class="st25" d="M176.9,621c-0.1,0-0.2,0-0.2,0c-0.2,0-0.3-0.1-0.5-0.1c-0.2-0.1-0.3-0.1-0.4-0.2c-0.1-0.1-0.3-0.2-0.4-0.3
			c-0.3-0.4-0.5-0.8-0.5-1.2c0-1.1,0.9-1.9,2-1.9s2,0.9,2,1.9c0,0.2,0,0.4-0.1,0.5c0,0.2-0.1,0.3-0.2,0.4
			C178.3,620.4,177.6,621,176.9,621"/>
		<path class="st25" d="M171.9,617.7c-0.1,0-0.1,0-0.2,0c-0.1,0-0.2,0-0.3-0.1c-0.1,0-0.2-0.1-0.3-0.2c-0.1-0.1-0.2-0.1-0.3-0.2
			c-0.3-0.3-0.4-0.6-0.4-1c0-0.8,0.7-1.4,1.4-1.4c0.8,0,1.4,0.7,1.4,1.4c0,0.1,0,0.3-0.1,0.4c0,0.1-0.1,0.2-0.1,0.3
			C173,617.4,172.5,617.7,171.9,617.7"/>
		<path class="st25" d="M176.9,627.4c-0.2,0-0.4-0.1-0.6-0.1l0.1-1.7l0.1-0.7l0.1-1.4v-0.6l0.4-5.3c0.2,0,0.4,0.1,0.6,0l-0.4,5.3
			v0.6l-0.1,1.8L177,626L176.9,627.4"/>
		<path class="st25" d="M171.4,616.8l-0.6-8.2l0.6-0.4l0.6,8.6C171.8,616.8,171.6,616.8,171.4,616.8"/>
	</g>
</g>
<g>
	<path class="st26" d="M211.5,188.4c-5.9,0-10.5-4.8-10.6-10.6c0-5.9,4.8-10.5,10.6-10.7c5.9,0,10.5,4.8,10.7,10.7
		C222.2,183.7,217.5,188.4,211.5,188.4"/>
	<path class="st27" d="M327.1,170.1c-15.7,0-28.1-12.8-28.4-28.4c0-15.7,12.8-28.1,28.4-28.4c15.7,0,28.1,12.8,28.4,28.4
		C355.5,157.6,342.8,170.1,327.1,170.1"/>
	<path class="st28" d="M391.1,193.2c-10.5,0-18.7-8.5-18.9-18.9c0-10.5,8.5-18.7,18.9-18.9c10.5,0,18.7,8.5,18.9,18.9
		C410,184.8,401.6,193.2,391.1,193.2"/>
	<path class="st28" d="M324.1,195.5c-5.2,0-9.4-4.3-9.5-9.5c0-5.2,4.3-9.4,9.5-9.5c5.2,0,9.4,4.3,9.5,9.5
		C333.6,191.3,329.4,195.5,324.1,195.5"/>
	<path class="st29" d="M498.1,195.5c-10.5,0-18.7-8.5-18.9-18.9c0-10.5,8.5-18.7,18.9-18.9c10.5,0,18.7,8.5,18.9,18.9
		C517,187.1,508.5,195.5,498.1,195.5"/>
	<path class="st26" d="M352.5,108c-10.5,0-18.7-8.5-18.9-18.9c0-10.5,8.5-18.7,18.9-18.9c10.5,0,18.7,8.5,18.9,18.9
		C371.4,99.7,363,108,352.5,108"/>
	<path class="st27" d="M403,137.1c-10.5,0-18.7-8.5-18.9-18.9c0-10.5,8.5-18.7,18.9-18.9c10.5,0,18.7,8.5,18.9,18.9
		C421.9,128.7,413.4,137.1,403,137.1"/>
	<path class="st30" d="M371.6,139.4c-5.2,0-9.4-4.3-9.5-9.5c0-5.2,4.3-9.4,9.5-9.5c5.2,0,9.4,4.3,9.5,9.5
		C381,135.2,376.8,139.4,371.6,139.4"/>
	<path class="st31" d="M276.9,172.9c-10.5,0-18.7-8.5-18.9-18.9c0-10.5,8.5-18.7,18.9-18.9c10.5,0,18.7,8.5,18.9,18.9
		C295.8,164.6,287.3,172.9,276.9,172.9"/>
	<path class="st27" d="M238.2,160.7c-5.2,0-9.4-4.3-9.5-9.5c0-5.2,4.3-9.4,9.5-9.5c5.2,0,9.4,4.3,9.5,9.5
		C247.7,156.5,243.5,160.7,238.2,160.7"/>
	<path class="st32" d="M445.5,186c-13.1,0-23.4-10.6-23.6-23.6c0-13.1,10.6-23.4,23.6-23.6c13.1,0,23.4,10.6,23.6,23.6
		C469.1,175.6,458.5,186,445.5,186"/>
	<path class="st33" d="M279,214.4c-5.2,0-9.4-4.3-9.5-9.5c0-5.2,4.3-9.4,9.5-9.5c5.2,0,9.4,4.3,9.5,9.5
		C288.4,210.2,284.2,214.4,279,214.4"/>
</g>
<text transform="matrix(1 0 0 1 578.2 325.1415)" class="st1 st2 st34">+</text>
</svg>
